<svg width="762" height="563" viewBox="0 0 762 563" fill="none" xmlns="http://www.w3.org/2000/svg">
<g clip-path="url(#clip0)">
<path opacity="0.1" d="M49.8728 220.667H116.1V310.923H54.7152C54.5586 311.856 54.402 312.783 54.2258 313.716H116.1V386.493C115.996 386.493 115.891 386.415 115.793 386.375C114.053 385.684 112.313 384.951 110.573 384.177C110.201 384.007 109.835 383.831 109.457 383.668C107.716 382.846 105.976 381.976 104.236 381.058C103.629 380.738 103.022 380.405 102.428 380.066C92.7664 374.676 83.9853 367.842 76.3886 359.8C76.1602 359.585 75.9513 359.35 75.736 359.148C74.6787 357.999 73.6411 356.838 72.6361 355.65C72.2575 355.213 71.8921 354.77 71.5201 354.345C70.3323 352.897 69.1837 351.396 68.0743 349.889C67.9046 349.661 67.748 349.439 67.5848 349.237C63.04 342.949 59.2711 336.136 56.3598 328.945C56.2685 328.729 56.1836 328.494 56.0988 328.292C55.1982 326.009 54.3824 323.692 53.6776 321.33C53.3774 320.345 53.0837 319.373 52.8357 318.348C52.7444 318.055 52.6726 317.755 52.5942 317.461C48.9266 303.009 48.5023 287.989 48.5023 273.041C48.5023 271.301 48.5023 269.561 48.5023 267.821C48.5546 261.718 48.6263 255.622 48.7177 249.532C48.7525 247.966 48.7852 246.394 48.8156 244.815C48.907 240.817 49.0375 236.811 49.2072 232.796C49.2463 231.687 49.2985 230.571 49.3573 229.468C49.3834 228.829 49.416 228.19 49.4552 227.55C49.5726 225.24 49.7119 222.946 49.8728 220.667Z" fill="url(#paint0_linear)"/>
<path opacity="0.1" d="M116.1 120.173H79.7692C85.6777 110.937 92.1304 102.061 99.0931 93.5908C104.497 86.9617 110.188 80.5022 116.1 74.2776V120.173Z" fill="url(#paint1_linear)"/>
<path opacity="0.1" d="M116.1 122.952V217.874H50.0817C50.0817 217.6 50.1209 217.319 50.147 217.045C50.2057 216.295 50.2644 215.551 50.3297 214.801C50.3949 213.927 50.4798 213.052 50.5646 212.191C50.6495 211.33 50.7343 210.286 50.8387 209.34C50.9431 208.394 51.028 207.434 51.1324 206.488C51.2368 205.542 51.3412 204.596 51.4587 203.657C51.5762 202.717 51.6806 201.764 51.8111 200.825C51.909 200.048 52.0069 199.265 52.1179 198.483C52.268 197.38 52.4246 196.277 52.5877 195.181C52.5877 195.011 52.6399 194.848 52.6661 194.685C53.8588 186.662 55.4796 178.707 57.5215 170.857C59.6658 162.623 62.4031 154.554 65.7118 146.715C69.2277 138.502 73.3461 130.559 78.0332 122.952H116.1Z" fill="url(#paint2_linear)"/>
<path opacity="0.1" d="M131.92 220.667V310.923H273.38V220.667H131.92ZM131.92 313.716V391.23C132.729 391.393 133.525 391.556 134.328 391.693C135.405 391.902 136.488 392.091 137.591 392.254L138.243 392.346C138.674 392.417 139.111 392.476 139.549 392.528C140.639 392.685 141.728 392.802 142.812 392.907C143.321 392.959 143.849 392.998 144.365 393.044L145.625 393.135C146.31 393.187 146.989 393.226 147.667 393.252C148.085 393.252 148.503 393.285 148.927 393.298C149.351 393.311 149.579 393.298 149.919 393.298H151.152C151.713 393.298 152.275 393.298 152.829 393.298H153.547C154.109 393.298 154.67 393.298 155.225 393.246H155.257C155.649 393.246 156.034 393.246 156.425 393.2C156.536 393.207 156.647 393.207 156.758 393.2C157.084 393.2 157.411 393.2 157.724 393.161C157.798 393.155 157.872 393.155 157.946 393.161C158.67 393.115 159.401 393.057 160.139 392.991C160.876 392.926 161.574 392.848 162.312 392.77L163.793 392.587C169.847 391.74 175.833 390.466 181.708 388.776C194.91 385.097 207.812 379.949 221.008 376.184C238.054 371.323 256.902 368.928 273.374 374.846V313.716H131.92ZM273.38 120.173V0.0130432C257.895 -0.157299 242.45 1.65166 227.423 5.39595C191.601 14.3936 159.434 33.9091 131.92 58.8336V120.166H139.04V122.952H131.92V217.874H273.38V122.952H168.166V120.16L273.38 120.173ZM455.121 79.5822C446.258 79.269 437.448 76.4699 429.473 72.131C414.241 63.8511 402.063 51.0495 388.463 40.2576C360.204 17.7669 325.159 4.18888 289.206 0.822111V120.173H491.132L491.635 119.644L455.121 79.5822ZM473.518 76.3199L493.025 97.7275V70.689C486.459 71.5176 480.742 73.4425 473.518 76.2938V76.3199ZM493.025 410.478V313.716H451.427C451.323 313.305 451.205 312.887 451.075 312.47C451.199 312.887 451.309 313.305 451.42 313.716H289.206V383.687C290.747 384.829 292.267 386.036 293.775 387.25C295.402 388.581 297.018 389.927 298.624 391.289L300.242 392.626C301.019 393.279 301.808 393.931 302.592 394.551C304.162 395.817 305.744 397.069 307.336 398.309C308.132 398.936 308.933 399.551 309.738 400.156C322.485 409.895 335.93 418.686 349.965 426.457C353.11 428.212 356.289 429.902 359.487 431.553C361.614 432.649 363.757 433.723 365.915 434.776C369.152 436.355 372.415 437.877 375.704 439.343C406.028 452.952 438.095 462.289 470.986 467.086C478.286 468.161 485.62 469.009 492.986 469.631V410.465H493.638L493.025 410.478ZM289.206 122.952V217.874H493.025V122.952H289.206ZM289.206 220.654V310.923H493.025V220.667L289.206 220.654ZM508.844 70.5585V100.768L533.735 73.449C525.486 72.0875 517.189 71.124 508.844 70.5585ZM508.844 220.667V310.923H707.076V220.667H508.844ZM706.378 417.635L707.076 313.716H508.844V470.682C521.613 471.212 534.401 471.058 547.153 470.218H547.374C553.466 469.827 559.528 469.27 565.563 468.548H565.7C597.903 464.8 629.391 456.391 659.174 443.584L706.378 417.635ZM745.319 235.491C744.567 233.751 743.794 232.011 743.002 230.271C741.527 227.009 739.974 223.838 738.369 220.673H722.902V310.923H762C761.967 285.359 755.493 259.26 745.319 235.491ZM722.902 313.716V403.105C733.911 392.554 743.224 380.477 749.92 366.671C757.98 350.039 761.667 332.044 761.974 313.709L722.902 313.716ZM722.902 194.365V217.854H736.92C732.671 209.78 727.991 201.939 722.902 194.365ZM588.463 88.2732C587.432 87.8752 586.394 87.4772 585.357 87.0987C574.416 83.0561 563.235 79.6959 551.878 77.0376L513.778 118.835L513.034 119.638L513.523 120.166H649.124C630.237 107.173 609.874 96.4669 588.463 88.2732ZM653.105 122.952H511.624L508.844 125.49V217.874H533.219H707.076V173.114C691.355 154.107 673.21 137.243 653.105 122.952Z" fill="url(#paint3_linear)"/>
<path opacity="0.1" d="M116.1 170.837V217.874H50.0817C50.0817 217.6 50.1209 217.319 50.147 217.045C50.2057 216.295 50.2644 215.551 50.3297 214.801C50.3949 213.927 50.4798 213.052 50.5646 212.191C50.6495 211.33 50.7343 210.286 50.8387 209.34C50.9431 208.394 51.028 207.434 51.1324 206.488C51.2368 205.542 51.3412 204.596 51.4587 203.657C51.5762 202.717 51.6806 201.764 51.8111 200.825C51.909 200.048 52.0069 199.265 52.1179 198.483C52.268 197.38 52.4246 196.277 52.5877 195.181C52.5877 195.011 52.6399 194.848 52.6661 194.685C53.8588 186.662 55.4796 178.707 57.5215 170.857L116.1 170.837Z" fill="url(#paint4_linear)"/>
<path opacity="0.1" d="M49.8728 220.667H116.1V310.923H54.7152C54.5586 311.856 54.402 312.783 54.2258 313.716H116.1V386.493C115.996 386.493 115.891 386.415 115.793 386.375C114.053 385.684 112.313 384.951 110.573 384.177C110.201 384.007 109.835 383.831 109.457 383.668C107.716 382.846 105.976 381.976 104.236 381.058C103.629 380.738 103.022 380.405 102.428 380.066C92.7664 374.676 83.9853 367.842 76.3886 359.8C76.1602 359.585 75.9513 359.35 75.736 359.148C74.6787 357.999 73.6411 356.838 72.6361 355.65C72.2575 355.213 71.8921 354.77 71.5201 354.345C70.3323 352.897 69.1837 351.396 68.0743 349.889C67.9046 349.661 67.748 349.439 67.5848 349.237C63.04 342.949 59.2711 336.136 56.3598 328.945C56.2685 328.729 56.1836 328.494 56.0988 328.292C55.1982 326.009 54.3824 323.692 53.6776 321.33C53.3774 320.345 53.0837 319.373 52.8357 318.348C52.7444 318.055 52.6726 317.755 52.5942 317.461C48.9266 303.009 48.5023 287.989 48.5023 273.041C48.5023 271.301 48.5023 269.561 48.5023 267.821C48.5546 261.718 48.6263 255.622 48.7177 249.532C48.7525 247.966 48.7852 246.394 48.8156 244.815C48.907 240.817 49.0375 236.811 49.2072 232.796C49.2463 231.687 49.2985 230.571 49.3573 229.468C49.3834 228.829 49.416 228.19 49.4552 227.55C49.5726 225.24 49.7119 222.946 49.8728 220.667Z" fill="url(#paint5_linear)"/>
<path opacity="0.1" d="M181.714 136.55V217.874H131.913V136.55H139.014V109.015H168.159V136.55H181.714Z" fill="url(#paint6_linear)"/>
<path opacity="0.1" d="M181.708 220.66H131.913V310.917H181.708V220.66Z" fill="url(#paint7_linear)"/>
<path opacity="0.1" d="M131.92 313.716H181.714V388.75C175.84 390.441 169.854 391.712 163.8 392.554C163.304 392.626 162.814 392.685 162.318 392.737C161.588 392.822 160.863 392.9 160.139 392.965L157.952 393.141H157.731L156.765 393.194H156.432C156.04 393.194 155.655 393.239 155.264 393.246H155.231C154.67 393.246 154.115 393.285 153.554 393.298H152.836C152.281 393.298 151.727 393.298 151.159 393.298H149.932H148.933C148.509 393.298 148.091 393.298 147.667 393.246C146.997 393.22 146.318 393.181 145.631 393.128L144.372 393.037C143.849 392.998 143.327 392.946 142.812 392.894C141.715 392.798 140.628 392.674 139.549 392.522L138.243 392.339L137.591 392.248C136.501 392.084 135.418 391.902 134.328 391.693C133.519 391.549 132.722 391.386 131.92 391.217V313.716Z" fill="url(#paint8_linear)"/>
<path opacity="0.1" d="M493.018 126.945H451.956V217.868H493.018V126.945Z" fill="url(#paint9_linear)"/>
<path opacity="0.1" d="M493.025 220.66V310.923H289.206V271.99H397.769V294.957H451.956V220.66H493.025Z" fill="url(#paint10_linear)"/>
<path opacity="0.1" d="M493.671 410.497C493.455 410.497 493.24 410.497 493.018 410.458V469.67C485.661 469.066 478.33 468.22 471.025 467.132C438.122 462.337 406.043 453.004 375.704 439.402C366.946 435.452 358.366 431.148 349.965 426.489C335.934 418.715 322.492 409.924 309.744 400.188C306.533 397.735 303.37 395.227 300.255 392.665C298.095 390.877 295.954 389.051 293.775 387.282C292.274 386.062 290.753 384.855 289.206 383.707V313.716H451.42C451.303 313.298 451.199 312.887 451.081 312.47C451.205 312.887 451.323 313.298 451.427 313.716H493.025V410.452C493.24 410.458 493.455 410.478 493.671 410.497Z" fill="url(#paint11_linear)"/>
<path opacity="0.1" d="M600.119 120.173H573.362V111.86H585.35V87.0987C586.39 87.4815 587.425 87.873 588.457 88.2732V111.86H600.112L600.119 120.173Z" fill="url(#paint12_linear)"/>
<path opacity="0.1" d="M664.591 217.874H533.219C533.232 217.877 533.246 217.877 533.258 217.874H533.2H508.844V126.952H515.749V194.157H547.296V154.356H573.368V122.952H600.125V154.375H626.184V194.176H664.597L664.591 217.874Z" fill="url(#paint13_linear)"/>
<path opacity="0.1" d="M508.844 220.667V310.923H664.597V220.667H508.844ZM706.854 417.159L707.076 345.713H664.597V313.742H508.844V470.682C521.613 471.212 534.401 471.058 547.153 470.218H547.374C553.466 469.827 559.528 469.27 565.563 468.548H565.7C597.903 464.8 629.391 456.391 659.174 443.584" fill="url(#paint14_linear)"/>
<path opacity="0.1" d="M725.643 313.716H761.974C761.661 332.044 757.98 350.046 749.92 366.671C743.224 380.484 733.912 392.561 722.902 403.111V345.694H725.643V313.716Z" fill="url(#paint15_linear)"/>
<path opacity="0.1" d="M762 310.923H725.643V235.491H745.319C755.493 259.26 761.967 285.359 762 310.923Z" fill="url(#paint16_linear)"/>
<path opacity="0.1" d="M493.025 152.222H471.025V180.729H493.025V152.222Z" fill="url(#paint17_linear)"/>
<path opacity="0.1" d="M493.025 211.31H471.025V217.874H493.025V211.31Z" fill="url(#paint18_linear)"/>
<path opacity="0.1" d="M493.025 220.66H471.025V239.81H493.025V220.66Z" fill="url(#paint19_linear)"/>
<path opacity="0.1" d="M493.025 270.398H471.025V298.905H493.025V270.398Z" fill="url(#paint20_linear)"/>
<path opacity="0.1" d="M493.025 329.486H471.025V357.993H493.025V329.486Z" fill="url(#paint21_linear)"/>
<path opacity="0.1" d="M493.025 410.452C493.24 410.452 493.455 410.452 493.677 410.497C493.462 410.497 493.247 410.497 493.025 410.458V417.081H471.025V388.574H493.025V410.452Z" fill="url(#paint22_linear)"/>
<path opacity="0.1" d="M493.025 447.656V469.67C485.663 469.066 478.33 468.22 471.025 467.132V447.656H493.025Z" fill="url(#paint23_linear)"/>
<path opacity="0.1" d="M383.49 308.829H289.206V310.923H383.49V308.829Z" fill="url(#paint24_linear)"/>
<path opacity="0.1" d="M383.49 313.709H289.206V321.735H383.49V313.709Z" fill="url(#paint25_linear)"/>
<path opacity="0.1" d="M383.49 348.043H289.206V360.948H383.49V348.043Z" fill="url(#paint26_linear)"/>
<path opacity="0.1" d="M383.49 387.256V400.162H309.744C306.533 397.718 303.37 395.208 300.255 392.633C298.088 390.851 295.948 389.024 293.775 387.256H383.49Z" fill="url(#paint27_linear)"/>
<path opacity="0.1" d="M383.49 426.463V439.402H375.704C366.946 435.452 358.366 431.148 349.965 426.489L383.49 426.463Z" fill="url(#paint28_linear)"/>
<path opacity="0.1" d="M565.713 229.41H547.153V247.966H565.713V229.41Z" fill="url(#paint29_linear)"/>
<path opacity="0.1" d="M163.846 142.95H145.285V161.507H163.846V142.95Z" fill="url(#paint30_linear)"/>
<path opacity="0.1" d="M163.846 186.053H145.285V204.609H163.846V186.053Z" fill="url(#paint31_linear)"/>
<path opacity="0.1" d="M163.846 229.155H145.285V247.712H163.846V229.155Z" fill="url(#paint32_linear)"/>
<path opacity="0.1" d="M163.846 272.251H145.285V290.808H163.846V272.251Z" fill="url(#paint33_linear)"/>
<path opacity="0.1" d="M163.846 315.354H145.285V333.91H163.846V315.354Z" fill="url(#paint34_linear)"/>
<path opacity="0.1" d="M163.846 358.456H145.285V377.012H163.846V358.456Z" fill="url(#paint35_linear)"/>
<path opacity="0.1" d="M636.567 229.41H618.007V247.966H636.567V229.41Z" fill="url(#paint36_linear)"/>
<path opacity="0.1" d="M565.713 275.181H547.153V293.737H565.713V275.181Z" fill="url(#paint37_linear)"/>
<path opacity="0.1" d="M636.567 275.181H618.007V293.737H636.567V275.181Z" fill="url(#paint38_linear)"/>
<path opacity="0.1" d="M565.713 320.945H547.153V339.502H565.713V320.945Z" fill="url(#paint39_linear)"/>
<path opacity="0.1" d="M636.567 320.945H618.007V339.502H636.567V320.945Z" fill="url(#paint40_linear)"/>
<path opacity="0.1" d="M565.713 366.716H547.153V385.273H565.713V366.716Z" fill="url(#paint41_linear)"/>
<path opacity="0.1" d="M636.567 366.716H618.007V385.273H636.567V366.716Z" fill="url(#paint42_linear)"/>
<path opacity="0.1" d="M565.713 412.487H547.153V431.044H565.713V412.487Z" fill="url(#paint43_linear)"/>
<path opacity="0.1" d="M636.567 412.487H618.007V431.044H636.567V412.487Z" fill="url(#paint44_linear)"/>
<path opacity="0.1" d="M547.153 470.218V458.252H565.706V468.515L547.153 470.218Z" fill="url(#paint45_linear)"/>
<path opacity="0.1" d="M52.5877 194.666V205.281H116.1V194.666H52.5877ZM58.9116 204.616H53.6907V195.338H58.9116V204.616ZM65.2354 204.616H60.0145V195.338H65.2354V204.616ZM71.5462 204.616H66.3253V195.338H71.5462V204.616ZM77.87 204.616H72.6491V195.338H77.87V204.616ZM84.1874 204.616H78.9664V195.338H84.1874V204.616ZM90.5112 204.616H85.2903V195.338H90.5112V204.616ZM96.835 204.616H91.6141V195.338H96.835V204.616ZM103.152 204.616H97.9314V195.338H103.152V204.616ZM109.47 204.616H104.249V195.338H109.47V204.616ZM115.794 204.616H110.573V195.338H115.794V204.616Z" fill="url(#paint46_linear)"/>
<path opacity="0.1" d="M52.5877 225.567V236.182H116.1V225.567H52.5877ZM58.9116 235.517H53.6907V226.239H58.9116V235.517ZM65.2354 235.517H60.0145V226.239H65.2354V235.517ZM71.5462 235.517H66.3253V226.239H71.5462V235.517ZM77.87 235.517H72.6491V226.239H77.87V235.517ZM84.1874 235.517H78.9664V226.239H84.1874V235.517ZM90.5112 235.517H85.2903V226.239H90.5112V235.517ZM96.835 235.517H91.6141V226.239H96.835V235.517ZM103.152 235.517H97.9314V226.239H103.152V235.517ZM109.47 235.517H104.249V226.239H109.47V235.517ZM115.794 235.517H110.573V226.239H115.794V235.517Z" fill="url(#paint47_linear)"/>
<path opacity="0.1" d="M52.5877 256.474V267.084H116.1V256.474H52.5877ZM58.9116 266.412H53.6907V257.133H58.9116V266.412ZM65.2354 266.412H60.0145V257.133H65.2354V266.412ZM71.5462 266.412H66.3253V257.133H71.5462V266.412ZM77.87 266.412H72.6491V257.133H77.87V266.412ZM84.1874 266.412H78.9664V257.133H84.1874V266.412ZM90.5112 266.412H85.2903V257.133H90.5112V266.412ZM96.835 266.412H91.6141V257.133H96.835V266.412ZM103.152 266.412H97.9314V257.133H103.152V266.412ZM109.47 266.412H104.249V257.133H109.47V266.412ZM115.794 266.412H110.573V257.133H115.794V266.412Z" fill="url(#paint48_linear)"/>
<path opacity="0.1" d="M52.5877 287.376V297.985H116.1V287.376H52.5877ZM58.9116 297.319H53.6907V288.028H58.9116V297.319ZM65.2354 297.319H60.0145V288.028H65.2354V297.319ZM71.5462 297.319H66.3253V288.028H71.5462V297.319ZM77.87 297.319H72.6491V288.028H77.87V297.319ZM84.1874 297.319H78.9664V288.028H84.1874V297.319ZM90.5112 297.319H85.2903V288.028H90.5112V297.319ZM96.835 297.319H91.6141V288.028H96.835V297.319ZM103.152 297.319H97.9314V288.028H103.152V297.319ZM109.47 297.319H104.249V288.028H109.47V297.319ZM115.794 297.319H110.573V288.028H115.794V297.319Z" fill="url(#paint49_linear)"/>
<path opacity="0.1" d="M52.8945 318.264C53.1425 319.268 53.4361 320.26 53.7363 321.245V318.936H58.9573V328.207H56.1575C56.2359 328.429 56.3207 328.658 56.4121 328.86H116.126V318.264H52.8945ZM65.2942 328.207H60.0732V318.936H65.2942V328.207ZM71.6049 328.207H66.384V318.936H71.6049V328.207ZM77.9288 328.207H72.7079V318.936H77.9288V328.207ZM84.2461 328.207H79.0252V318.936H84.2461V328.207ZM90.5699 328.207H85.349V318.936H90.5699V328.207ZM96.8938 328.207H91.6729V318.936H96.8938V328.207ZM103.211 328.207H97.9902V318.936H103.211V328.207ZM109.528 328.207H104.307V318.936H109.528V328.207ZM115.852 328.207H110.631V318.936H115.852V328.207Z" fill="url(#paint50_linear)"/>
<path opacity="0.1" d="M67.6044 349.165C67.7741 349.374 67.9307 349.608 68.0939 349.817H71.5462V354.274L72.6622 355.579V349.791H77.8831V359.148H75.736C75.9448 359.363 76.1471 359.591 76.3886 359.8H116.087V349.165H67.6044ZM84.22 359.148H78.9991V349.83H84.22V359.148ZM90.5438 359.148H85.3229V349.83H90.5438V359.148ZM96.8677 359.148H91.6467V349.83H96.8677V359.148ZM103.185 359.148H97.9641V349.83H103.185V359.148ZM109.502 359.148H104.281V349.83H109.502V359.148ZM115.826 359.148H110.605V349.83H115.826V359.148Z" fill="url(#paint51_linear)"/>
<path opacity="0.1" d="M102.448 380.066C103.048 380.405 103.655 380.718 104.262 381.051V380.725H109.483V383.668C109.861 383.831 110.22 384.007 110.592 384.177V380.725H115.813V386.375C115.912 386.42 116.015 386.457 116.12 386.486V380.066H102.448Z" fill="url(#paint52_linear)"/>
<path opacity="0.1" d="M493.018 410.452H493.671H493.018ZM451.075 312.47C451.199 312.887 451.309 313.305 451.42 313.716C451.323 313.305 451.205 312.887 451.075 312.47ZM139.04 120.173V122.952H168.192V120.16L139.04 120.173ZM493.025 410.452H493.677H493.025ZM451.075 312.47C451.199 312.887 451.309 313.305 451.42 313.716C451.323 313.305 451.205 312.887 451.075 312.47ZM493.018 410.452H493.671H493.018ZM451.075 312.47C451.199 312.887 451.309 313.305 451.42 313.716C451.323 313.305 451.205 312.887 451.075 312.47Z" fill="url(#paint53_linear)"/>
<path opacity="0.1" d="M573.929 563C609.05 563 637.52 558.428 637.52 552.789C637.52 547.149 609.05 542.578 573.929 542.578C538.809 542.578 510.339 547.149 510.339 552.789C510.339 558.428 538.809 563 573.929 563Z" fill="url(#paint54_linear)"/>
<path opacity="0.1" d="M287.131 552.789C322.251 552.789 350.722 548.217 350.722 542.578C350.722 536.938 322.251 532.366 287.131 532.366C252.011 532.366 223.54 536.938 223.54 542.578C223.54 548.217 252.011 552.789 287.131 552.789Z" fill="url(#paint55_linear)"/>
<path d="M360.341 272.571C360.326 272.506 360.292 272.447 360.244 272.401C359.271 271.442 346.872 253.91 346.872 253.91C346.872 253.91 346.219 251.953 345.162 249.408C345.501 248.969 345.755 248.472 345.912 247.94C345.969 247.715 346.011 247.486 346.036 247.255C346.036 247.183 346.088 247.124 346.108 247.053C346.335 246.168 346.312 245.237 346.043 244.364C345.97 244.588 345.881 244.807 345.775 245.017C345.53 244.257 345.201 243.526 344.796 242.838C343.152 240.006 340.802 237.618 339.073 234.858C336.454 230.57 335.413 225.503 336.129 220.53C336.129 220.784 336.129 221.045 336.129 221.3C336.195 220.313 336.326 219.332 336.521 218.363C336.794 217.26 337.158 216.182 337.611 215.14C339.164 211.584 341.677 208.485 343.204 204.916C343.716 203.712 344.105 202.459 344.365 201.177C344.904 199.036 345.1 196.823 344.946 194.62C344.946 195.142 344.861 195.664 344.783 196.179C344.618 190.883 342.479 185.84 338.786 182.04C333.454 176.683 325.799 174.602 318.476 173.506C315.399 173.147 312.461 172.026 309.927 170.243C307.114 168.423 303.479 167.986 300.19 168.384C296.41 168.793 292.897 170.529 290.277 173.284C286.798 177.107 285.291 182.523 281.231 185.746C278.771 187.704 275.652 188.617 272.787 189.948C269.922 191.279 267.213 193.211 266.293 196.068C266.293 196.068 266.293 196.029 266.293 196.01V196.173L266.254 196.277C265.301 199.657 267.142 203.096 268.101 206.469C269.099 209.96 269.165 213.646 269.217 217.254C269.289 221.665 269.354 226.082 269.282 230.499C269.249 232.235 269.191 233.99 269.06 235.719C267.516 236.186 266.015 236.789 264.577 237.52C263.115 238.473 257.646 244.378 257.646 244.378L246.95 285.235L247.093 285.399L246.95 285.953L247.491 285.829C249.005 287.46 253.528 292.106 258.41 295.003L258.866 303.015C258.866 303.015 259.415 311.054 266.809 314.375C266.978 317.161 267.507 328.475 265.06 332.957C263.365 336.232 262.568 339.897 262.749 343.58C262.749 343.58 263.604 350.378 262.632 353.954C262.064 356.344 262.022 358.828 262.508 361.236C262.508 361.236 262.508 362.025 262.508 363.382C262.508 370.618 262.593 393.807 262.508 396.43C262.384 399.529 262.508 445.366 262.508 445.366C262.508 445.366 261.901 468.274 259.956 474.479C258.011 480.684 258.501 501.23 258.501 501.23C258.501 501.23 257.28 525.705 261.594 530.533C261.594 530.748 261.555 530.97 261.549 531.186C261.549 531.283 261.549 531.394 261.549 531.492C261.496 533.352 261.855 535.329 263.454 535.936C266.717 537.188 271.031 540.947 271.847 542.023C272.663 543.1 277.407 545.781 283.594 545.064C287.47 544.628 291.37 544.449 295.269 544.529C295.269 544.529 297.71 544.085 296.92 541.051C296.411 539.159 294.506 536.249 293.148 534.337C293.396 534.402 293.638 534.454 293.866 534.5L294.101 534.546H294.284C294.384 534.552 294.484 534.552 294.584 534.546H294.714C294.836 534.556 294.958 534.556 295.08 534.546C296.718 534.389 302.827 537.234 303.916 539.113C305.006 540.992 308.85 542.421 311.748 542.78C313.471 542.989 317.817 542.636 321.465 542.167C323.302 541.977 325.122 541.645 326.908 541.175C327.769 540.849 327.952 539.805 327.704 538.63C327.411 537.139 326.614 535.793 325.446 534.82C324.389 534.069 322.992 532.092 321.961 530.474L321.687 530.037C323.508 528.302 326.797 522.625 327.796 521.451C329.009 520.022 325.838 467.765 325.838 467.765V441.568L330.7 416.774L334.1 403.653L337.017 383.844C337.017 383.844 342.12 360.707 340.548 358.436C340.548 358.391 339.242 334.569 337.872 328.847C337.278 326.296 337.428 320.554 337.781 314.969C338.149 314.603 338.406 314.14 338.521 313.634C338.637 313.128 338.606 312.6 338.433 312.111C338.336 311.776 338.209 311.451 338.055 311.139C338.055 311.041 338.055 310.936 338.055 310.839C340.874 309.542 343.82 308.54 346.845 307.85C351.707 306.898 350.494 304.392 350.494 304.392C350.494 304.392 351.59 302.245 352.314 300.934C353.039 299.623 352.438 288.048 352.314 287.095C352.269 286.71 351.968 284.583 351.623 282.169C353.182 281.06 355.212 279.683 357.424 278.378C361.634 275.886 360.687 273.256 360.341 272.571ZM296.907 437.993C296.907 437.993 293.259 447.297 294.721 449.678C296.183 452.06 294.48 460.901 294.48 460.901L293.259 474.022C293.259 474.022 289.859 498.36 291.073 504.082C292.026 508.571 292.378 521.979 292.489 527.571C292.406 527.603 292.325 527.643 292.248 527.688L292.084 527.773C292.646 525.574 292.411 521.124 289.624 512.172L289.389 475.197C289.389 475.197 288.958 432.486 292.332 427.71C295.706 422.934 296.901 414.823 296.901 414.823C296.901 414.823 296.17 426.522 295.693 429.621C295.217 432.721 296.907 437.993 296.907 437.993ZM290.114 529.9C290.081 529.978 290.042 530.057 290.016 530.128L289.833 529.894C289.926 529.903 290.02 529.905 290.114 529.9Z" fill="url(#paint56_linear)"/>
<path d="M327.319 544.555C325.433 545.279 315.207 546.512 312.348 546.166C309.49 545.82 305.705 544.372 304.628 542.48C303.551 540.587 297.514 537.73 295.896 537.912C295.232 537.932 294.57 537.84 293.938 537.638C292.821 537.3 291.731 536.882 290.675 536.386C290.527 535.563 290.552 534.719 290.747 533.906C290.784 533.742 290.832 533.581 290.89 533.423C291.271 532.353 292.059 531.476 293.083 530.983L293.318 530.872C293.77 530.677 294.243 530.532 294.728 530.442C299.857 529.456 321.021 531.433 321.021 531.433C321.021 531.433 321.615 532.497 322.431 533.815C323.449 535.446 324.833 537.436 325.877 538.186C327.034 539.175 327.819 540.528 328.102 542.023C328.35 543.178 328.168 544.235 327.319 544.555Z" fill="white"/>
<path opacity="0.1" d="M327.319 544.555C325.433 545.279 315.213 546.512 312.355 546.166C309.496 545.82 305.711 544.365 304.628 542.48C303.544 540.594 297.521 537.73 295.902 537.912C294.284 538.095 290.681 536.386 290.681 536.386C290.681 536.386 290.12 533.776 291.752 531.994L295.015 534.311C295.015 534.311 303.747 537.019 305.365 539.531C306.984 542.043 309.933 543.445 314.195 543.7C317.38 543.909 324.696 542.669 328.122 542.049C328.35 543.178 328.174 544.235 327.319 544.555Z" fill="black"/>
<path d="M296.078 547.882C292.229 547.807 288.379 547.988 284.553 548.424C278.425 549.141 273.746 546.466 272.93 545.364C272.114 544.261 267.892 540.535 264.648 539.23C263.063 538.617 262.691 536.621 262.762 534.754C262.762 534.657 262.762 534.546 262.762 534.448C262.823 533.266 262.997 532.092 263.285 530.944L288.678 530.402L290.877 533.384L291.216 533.841L292.554 535.661C292.554 535.661 293.161 536.457 293.957 537.619C295.302 539.576 297.181 542.467 297.684 544.378C298.487 547.439 296.078 547.882 296.078 547.882Z" fill="white"/>
<path opacity="0.1" d="M296.078 547.882C292.229 547.807 288.379 547.988 284.553 548.424C278.432 549.141 273.746 546.466 272.937 545.364C272.127 544.261 267.892 540.503 264.648 539.243C263.063 538.63 262.691 536.633 262.762 534.767C264.577 535.192 268.388 536.275 269.882 538.16C271.84 540.679 275.345 544.913 280.324 545.181C284.344 545.396 294.134 544.679 297.723 544.391C298.493 547.438 296.078 547.882 296.078 547.882Z" fill="black"/>
<path opacity="0.1" d="M293.057 530.957C292.763 533.136 291.856 533.723 291.203 533.854C291.044 533.885 290.88 533.885 290.72 533.854C290.635 533.848 290.55 533.835 290.466 533.815C290.466 533.815 267.664 538.852 263.056 534.774C262.939 534.669 262.83 534.556 262.73 534.435C262.79 533.253 262.965 532.079 263.252 530.931L288.645 530.389L290.844 533.371C291.225 532.301 292.013 531.424 293.037 530.931L293.057 530.957Z" fill="black"/>
<path opacity="0.1" d="M322.425 533.789C321.915 534.35 321.491 534.67 321.224 534.559C320.023 534.076 310.181 532.399 307.055 533.841C303.929 535.283 293.351 534.076 293.351 534.076C293.351 534.076 293.351 532.823 293.292 530.813C293.744 530.618 294.217 530.474 294.701 530.383C299.831 529.398 320.995 531.375 320.995 531.375C320.995 531.375 321.615 532.471 322.425 533.789Z" fill="black"/>
<path d="M337.317 386.199L334.433 406.126L331.078 419.332L326.275 444.295V470.721C326.275 470.721 329.394 523.297 328.194 524.732C326.993 526.168 322.431 534.343 321.23 533.867C320.029 533.391 310.188 531.707 307.062 533.143C303.936 534.578 293.357 533.384 293.357 533.384C293.357 533.384 293.116 512.981 291.915 507.22C290.714 501.459 294.075 476.971 294.075 476.971L295.276 463.772C295.276 463.772 296.959 454.885 295.517 452.484C294.075 450.083 297.677 440.739 297.677 440.739C297.677 440.739 296 435.448 296.483 432.329C296.966 429.21 297.677 417.446 297.677 417.446C297.677 417.446 296.483 425.615 293.148 430.411C289.813 435.206 290.238 478.185 290.238 478.185L290.472 515.376C296.483 535.068 290.472 533.143 290.472 533.143C290.472 533.143 267.67 538.186 263.063 534.102C258.455 530.017 259.773 504.31 259.773 504.31C259.773 504.31 259.297 483.666 261.216 477.428C263.134 471.19 263.741 448.139 263.741 448.139C263.741 448.139 263.617 402.041 263.741 398.929C263.833 396.319 263.741 372.954 263.741 365.653C263.741 364.296 263.741 363.493 263.741 363.493L266.495 356.655L299.126 352.571H314.737C314.737 352.571 338.231 358.091 340.659 360.472C340.71 360.512 340.755 360.56 340.789 360.616C342.362 362.919 337.317 386.199 337.317 386.199Z" fill="url(#paint57_linear)"/>
<path opacity="0.1" d="M297.697 490.869C297.697 490.869 304.876 508.153 308.263 509.354C311.65 510.554 297.697 490.869 297.697 490.869Z" fill="black"/>
<path opacity="0.1" d="M300.353 516.315C300.353 516.315 324.591 517.516 324.35 520.159C324.108 522.801 300.353 516.315 300.353 516.315Z" fill="black"/>
<path opacity="0.1" d="M267.925 509.406C268.884 510.313 286.413 512.016 284.971 513.673C283.529 515.33 269.367 518.554 269.367 518.554L267.925 509.406Z" fill="black"/>
<path opacity="0.1" d="M265.047 479.588C265.047 480.306 268.649 502.633 269.615 503.592C270.581 504.551 278.497 505.51 278.497 505.51L265.047 479.588Z" fill="black"/>
<path d="M291.184 174.4C287.745 178.243 286.257 183.691 282.25 186.94C279.815 188.898 276.735 189.831 273.903 191.162C271.07 192.493 268.264 194.522 267.422 197.536C266.482 200.929 268.297 204.394 269.249 207.787C270.235 211.297 270.294 214.964 270.352 218.637C270.418 223.081 270.489 227.524 270.411 231.967C270.294 238.89 269.719 246.133 266.045 251.998C279.313 256.22 293.422 256.794 307.336 257.336C310.01 257.526 312.696 257.459 315.357 257.133C317.662 256.674 319.943 256.097 322.19 255.404C326.631 254.229 331.209 253.644 335.803 253.662C337.807 253.662 339.849 253.786 341.781 253.264C343.713 252.742 345.573 251.405 346.095 249.473C346.558 247.738 345.88 245.891 344.992 244.332C343.373 241.487 341.076 239.112 339.34 236.306C337.568 233.343 336.517 230.005 336.271 226.561C336.025 223.117 336.591 219.663 337.924 216.478C339.464 212.896 341.944 209.777 343.458 206.188C345.009 202.335 345.421 198.118 344.646 194.038C343.871 189.958 341.941 186.185 339.086 183.169C333.819 177.78 326.262 175.692 319.031 174.582C315.986 174.223 313.082 173.101 310.586 171.32C307.812 169.493 304.217 169.049 300.967 169.454C297.217 169.874 293.745 171.63 291.184 174.4Z" fill="#3F3D56"/>
<g opacity="0.1">
<path opacity="0.1" d="M338.126 212.713C336.796 215.857 336.226 219.271 336.462 222.676C336.608 220.241 337.171 217.849 338.126 215.603C339.66 212.021 342.14 208.903 343.654 205.314C344.892 202.317 345.413 199.073 345.175 195.84C345.04 198.106 344.526 200.334 343.654 202.43C342.14 206.019 339.66 209.131 338.126 212.713Z" fill="black"/>
<path opacity="0.1" d="M270.548 217.75C270.587 220.308 270.626 222.872 270.633 225.43C270.633 221.906 270.6 218.389 270.548 214.873C270.496 211.225 270.431 207.532 269.445 204.015C268.793 201.784 267.827 199.52 267.487 197.269C266.907 200.466 268.558 203.709 269.445 206.899C270.431 210.384 270.496 214.103 270.548 217.75Z" fill="black"/>
<path opacity="0.1" d="M342.003 249.532C340.045 250.061 338.035 249.943 336.032 249.93C331.441 249.901 326.866 250.476 322.425 251.64C320.178 252.329 317.897 252.904 315.592 253.362C312.929 253.693 310.241 253.763 307.564 253.571C294.121 253.042 280.487 252.475 267.611 248.632C267.229 249.485 266.793 250.313 266.306 251.111C279.574 255.326 293.683 255.907 307.591 256.448C310.267 256.64 312.955 256.57 315.618 256.239C317.915 255.786 320.187 255.213 322.425 254.523C326.856 253.355 331.422 252.774 336.005 252.794C338.009 252.794 340.045 252.918 341.977 252.39C343.909 251.861 345.769 250.537 346.291 248.606C346.511 247.711 346.488 246.774 346.225 245.891C345.645 247.718 343.85 248.99 342.003 249.532Z" fill="black"/>
</g>
<path d="M322.672 241.8C322.19 242.883 320.153 252.24 319.67 253.199C319.187 254.158 316.551 269.511 316.309 270.372C316.068 271.233 298.93 266.77 298.93 266.77L288.613 258.125L278.008 247.575C278.008 247.575 277.694 238.055 285.506 235.001C286.037 234.793 286.582 234.623 287.138 234.493C296.614 232.215 295.661 203.409 295.661 203.409L315.109 211.806C315.109 211.806 311.506 228.614 311.63 231.857C311.663 232.946 312.518 233.625 313.634 234.036C315.359 234.527 317.156 234.721 318.946 234.61C318.946 234.61 323.155 240.724 322.672 241.8Z" fill="#FBBEBE"/>
<path d="M357.49 273.367L360.25 274.091C360.25 274.091 362.293 277.197 357.49 280.087C354.44 281.94 351.512 283.986 348.725 286.214L334.531 290.534L331.796 281.953L345.005 271.931L357.49 273.367Z" fill="url(#paint58_linear)"/>
<path opacity="0.1" d="M357.49 273.367L360.25 274.091C360.25 274.091 362.293 277.197 357.49 280.087C354.44 281.94 351.512 283.986 348.725 286.214L334.531 290.534L331.796 281.953L345.005 271.931L357.49 273.367Z" fill="black"/>
<path d="M253.9 281.653L248.379 287.056C248.379 287.056 258.338 298.579 265.999 299.296C273.661 300.014 278.601 290.534 278.601 290.534L271.971 280.094L253.9 281.653Z" fill="url(#paint59_linear)"/>
<path opacity="0.1" d="M253.9 281.653L248.379 287.056C248.379 287.056 258.338 298.579 265.999 299.296C273.661 300.014 278.601 290.534 278.601 290.534L271.971 280.094L253.9 281.653Z" fill="black"/>
<path opacity="0.1" d="M306.344 222.233C316.951 222.233 325.551 213.635 325.551 203.03C325.551 192.425 316.951 183.828 306.344 183.828C295.737 183.828 287.138 192.425 287.138 203.03C287.138 213.635 295.737 222.233 306.344 222.233Z" fill="black"/>
<path d="M306.344 220.791C316.951 220.791 325.551 212.193 325.551 201.588C325.551 190.983 316.951 182.386 306.344 182.386C295.737 182.386 287.138 190.983 287.138 201.588C287.138 212.193 295.737 220.791 306.344 220.791Z" fill="#FBBEBE"/>
<path opacity="0.1" d="M340.802 362.795C336.429 363.295 332.121 364.26 327.952 365.672C320.773 368.06 264.518 365.712 263.735 365.672C263.735 364.315 263.735 363.513 263.735 363.513L266.489 356.675L299.12 352.59H314.73C314.73 352.59 338.224 358.11 340.652 360.492C340.75 361.927 340.802 362.795 340.802 362.795Z" fill="black"/>
<path opacity="0.1" d="M322.672 241.8C322.19 242.883 320.153 252.24 319.67 253.199C319.187 254.158 316.551 269.511 316.309 270.372C316.068 271.233 298.93 266.77 298.93 266.77L288.613 258.125L278.008 247.575C278.008 247.575 277.694 238.055 285.506 235.001L304.902 257.296L313.634 234.036C315.359 234.527 317.156 234.721 318.946 234.61C318.946 234.61 323.155 240.724 322.672 241.8Z" fill="black"/>
<path d="M304.902 258.014L285.049 235.178C283.887 234.436 282.559 233.995 281.184 233.893C279.809 233.792 278.43 234.034 277.172 234.597C272.728 236.522 267.207 238.081 265.764 239.04C264.322 239.999 258.919 245.937 258.919 245.937L275.012 288.028L267.925 315.752C267.925 315.752 269.008 329.917 266.247 335.078C264.567 338.378 263.779 342.06 263.963 345.759C263.963 345.759 264.805 352.603 263.846 356.198C263.285 358.602 263.243 361.098 263.722 363.519C263.722 363.519 320.754 365.92 327.952 363.519C332.12 362.103 336.428 361.138 340.802 360.642C340.802 360.642 339.497 336.631 338.192 330.869C336.886 325.108 339.275 303.146 339.275 303.146L337.715 279.618L347.074 255.476C347.074 255.476 342.003 239.999 336.717 238.44C336.717 238.44 327.117 236.156 325.074 235.08C323.031 234.003 317.027 233.038 317.027 233.038L313.875 234.095L304.902 258.014Z" fill="url(#paint60_linear)"/>
<path opacity="0.1" d="M332.6 278.823L290.825 275.983C289.768 275.911 288.852 276.71 288.78 277.767L284.295 343.71C284.224 344.767 285.022 345.682 286.08 345.754L327.855 348.594C328.912 348.666 329.828 347.867 329.899 346.81L334.384 280.867C334.456 279.81 333.658 278.895 332.6 278.823Z" fill="black"/>
<path d="M334.039 277.391L292.263 274.551C291.206 274.479 290.291 275.278 290.219 276.335L285.734 342.278C285.662 343.335 286.461 344.25 287.518 344.322L329.293 347.162C330.351 347.234 331.266 346.435 331.338 345.378L335.823 279.435C335.895 278.378 335.096 277.463 334.039 277.391Z" fill="#3F3D56"/>
<path d="M332.66 282.56L292.929 279.859L288.846 339.892L328.577 342.593L332.66 282.56Z" fill="white"/>
<path opacity="0.1" d="M329.098 297.883L296.643 295.612L296.01 304.655L328.465 306.926L329.098 297.883Z" fill="black"/>
<path opacity="0.1" d="M327.923 333.821L322.773 333.47L322.452 338.183L327.603 338.534L327.923 333.821Z" fill="black"/>
<path opacity="0.1" d="M322.843 322.446L296.48 320.654L296.159 325.367L322.523 327.159L322.843 322.446Z" fill="black"/>
<path d="M327.743 280.315L300.292 278.449L299.799 285.695L327.25 287.561L327.743 280.315Z" fill="#3F3D56"/>
<path opacity="0.1" d="M327.743 280.315L300.292 278.449L299.799 285.695L327.25 287.561L327.743 280.315Z" fill="black"/>
<path opacity="0.1" d="M307.303 361.47C307.303 361.47 307.062 397.004 297.697 417.407C297.697 417.407 308.987 390.519 308.987 389.442C308.987 388.365 315.226 377.078 313.555 373.717C311.885 370.357 307.303 361.47 307.303 361.47Z" fill="black"/>
<path opacity="0.1" d="M307.812 196.786C307.454 193.641 308.224 190.471 309.986 187.841C309.776 190.477 310.522 193.1 312.087 195.233C313.651 197.365 315.931 198.863 318.509 199.455C318.289 199.264 318.132 199.011 318.058 198.729C317.985 198.447 317.999 198.15 318.098 197.876C319.436 199.389 320.46 201.184 321.974 202.515C323.488 203.846 325.759 204.642 327.541 203.696C329.962 202.391 329.988 198.952 329.362 196.277C328.017 190.58 325.259 185.313 321.341 180.964C320.364 179.649 319.095 178.578 317.634 177.835C316.174 177.093 314.561 176.699 312.922 176.683C309.216 176.396 305.365 176.723 302.043 178.386C300.174 179.406 298.423 180.629 296.822 182.034L287.686 189.485C286.807 190.118 286.054 190.91 285.467 191.821C285.075 192.582 284.84 193.414 284.775 194.268C284.542 196.708 284.993 199.165 286.079 201.363C287.165 203.561 288.843 205.413 290.923 206.71C290.879 204.781 291.409 202.883 292.447 201.257C293.485 199.63 294.983 198.349 296.751 197.576C297.028 197.807 297.252 198.095 297.408 198.42C297.565 198.746 297.65 199.1 297.658 199.461L299.583 196.029C299.869 195.405 300.321 194.87 300.888 194.483C302.076 193.83 303.557 194.6 304.569 195.52C305.581 196.44 306.566 197.589 307.923 197.732L307.976 192.623" fill="black"/>
<path d="M307.812 196.068C307.453 192.921 308.223 189.749 309.986 187.116C309.398 192.336 313.334 197.726 318.515 198.73C318.295 198.541 318.138 198.289 318.064 198.008C317.991 197.727 318.005 197.431 318.104 197.158C319.442 198.672 320.467 200.46 321.981 201.797C323.495 203.135 325.766 203.924 327.548 202.972C329.969 201.667 329.995 198.228 329.368 195.559C328.024 189.862 325.265 184.596 321.348 180.246C320.132 178.764 318.6 177.574 316.864 176.762C315.608 176.297 314.287 176.028 312.949 175.966C309.242 175.679 305.391 175.998 302.069 177.662C300.201 178.686 298.451 179.912 296.849 181.316L287.712 188.767C286.831 189.399 286.079 190.191 285.493 191.103C285.1 191.864 284.865 192.696 284.801 193.55C284.568 195.989 285.02 198.445 286.106 200.642C287.192 202.839 288.869 204.689 290.949 205.986C290.907 204.058 291.438 202.16 292.475 200.534C293.513 198.908 295.01 197.626 296.777 196.851C297.053 197.084 297.276 197.372 297.433 197.697C297.589 198.022 297.675 198.376 297.684 198.737L299.603 195.318C299.887 194.692 300.339 194.157 300.908 193.772C302.096 193.119 303.577 193.889 304.589 194.809C305.6 195.729 306.586 196.871 307.943 197.021L307.995 191.906" fill="#3F3D56"/>
<path d="M316.91 317.187C315.233 316.339 287.497 320.665 287.497 320.665C287.497 320.665 282.928 319.36 271.886 317.546C260.844 315.732 260.139 304.94 260.139 304.94L258.932 283.337L262.658 280.074L278.621 290.514C278.621 290.514 278.869 295.792 278.621 296.745C278.464 297.398 278.047 298.174 278.086 298.702C278.098 298.846 278.157 298.981 278.254 299.087C278.35 299.193 278.48 299.264 278.621 299.29C279.704 299.564 294.466 301.952 294.466 301.952C294.466 301.952 328.683 299.609 337.213 311.132C337.889 311.978 338.4 312.943 338.72 313.977C340.835 321.852 318.431 317.937 316.91 317.187Z" fill="#FBBEBE"/>
<path opacity="0.1" d="M338.74 314.023C337.435 314.603 336.625 315.021 336.625 315.021C336.625 315.021 324.382 314.662 317.504 312.17C310.625 309.677 302.265 310.121 302.265 310.121C302.265 310.121 273.602 305.188 278.047 298.748C278.059 298.891 278.118 299.026 278.215 299.133C278.311 299.239 278.44 299.31 278.582 299.335C279.665 299.609 294.427 301.997 294.427 301.997C294.427 301.997 328.644 299.655 337.174 311.178C337.87 312.019 338.402 312.984 338.74 314.023Z" fill="black"/>
<path d="M350.644 276.009C350.644 276.009 352.327 287.891 352.445 288.857C352.562 289.822 353.169 301.456 352.445 302.78C351.72 304.105 350.644 306.258 350.644 306.258C350.644 306.258 351.844 308.777 347.041 309.742C342.238 310.708 336.599 313.579 336.599 313.579C336.599 313.579 324.35 313.22 317.51 310.701C310.671 308.183 302.265 308.659 302.265 308.659C302.265 308.659 265.882 302.415 281.492 294.794C297.103 287.173 308.145 297.495 308.145 297.495L325.551 296.419C325.551 296.419 332.038 292.452 333.839 292.817C335.111 292.979 336.402 292.771 337.559 292.217L337.683 279.611L350.644 276.009Z" fill="#FBBEBE"/>
<path opacity="0.1" d="M262.384 246.844L258.899 246.661L248.34 287.767C248.34 287.767 259.741 284.883 264.655 287.767C269.569 290.651 278.582 291.245 278.582 291.245L275.221 258.477L262.384 246.844Z" fill="black"/>
<path d="M262.384 246.12L258.899 245.937L248.34 287.043C248.34 287.043 259.741 284.159 264.655 287.043C269.569 289.927 278.582 290.52 278.582 290.52L275.221 257.753L262.384 246.12Z" fill="url(#paint61_linear)"/>
<path opacity="0.1" d="M342.244 255.124L347.041 256.207C347.041 256.207 359.291 273.824 360.25 274.809C361.209 275.794 355.682 279.376 353.404 279.376C351.127 279.376 339.96 280.681 336.717 283.696C333.473 286.71 334.824 271.54 334.824 271.194C334.824 270.848 338.851 261.277 338.851 261.277L342.244 255.124Z" fill="black"/>
<path d="M342.244 254.406L347.041 255.483C347.041 255.483 359.291 273.132 360.25 274.091C361.209 275.05 355.682 278.658 353.404 278.658C351.127 278.658 339.96 279.963 336.717 282.978C333.473 285.992 334.824 270.822 334.824 270.476C334.824 270.131 338.877 260.526 338.877 260.526L342.244 254.406Z" fill="url(#paint62_linear)"/>
<g opacity="0.1">
<path opacity="0.1" d="M309.953 187.175C309.925 186.675 309.936 186.173 309.986 185.674C308.992 187.165 308.308 188.84 307.976 190.601V192.114C307.976 192.114 307.976 192.082 307.976 192.062V192.421C307.976 193.478 307.976 194.542 307.943 195.599H307.852V196.088C307.852 195.918 307.852 195.755 307.819 195.586C306.514 195.377 305.58 194.281 304.608 193.406C303.636 192.532 302.115 191.697 300.927 192.369C300.358 192.755 299.907 193.29 299.622 193.915L297.684 197.334C297.675 196.974 297.59 196.621 297.434 196.297C297.277 195.972 297.053 195.686 296.777 195.455C295.009 196.228 293.511 197.51 292.473 199.136C291.435 200.763 290.905 202.661 290.949 204.59C289.166 203.473 287.674 201.947 286.597 200.14C285.52 198.333 284.889 196.295 284.756 194.196C284.642 196.54 285.156 198.872 286.245 200.952C287.334 203.031 288.957 204.782 290.949 206.025C290.907 204.097 291.438 202.199 292.475 200.573C293.513 198.947 295.01 197.665 296.777 196.89C297.053 197.123 297.276 197.411 297.433 197.736C297.589 198.061 297.675 198.416 297.684 198.776L299.603 195.357C299.887 194.732 300.339 194.196 300.908 193.811C302.096 193.158 303.577 193.928 304.589 194.848C305.6 195.768 306.586 196.91 307.943 197.06C307.943 195.39 307.96 193.724 307.995 192.062C308.315 190.319 308.981 188.657 309.953 187.175Z" fill="black"/>
<path opacity="0.1" d="M307.747 193.746C307.78 193.302 307.832 192.858 307.897 192.441L307.969 190.64C307.773 191.663 307.698 192.705 307.747 193.746Z" fill="black"/>
<path opacity="0.1" d="M327.548 201.53C325.766 202.482 323.495 201.686 321.981 200.355C320.467 199.024 319.442 197.23 318.104 195.716C318.005 195.99 317.992 196.287 318.065 196.569C318.138 196.851 318.295 197.104 318.515 197.295C318.385 197.295 318.261 197.23 318.137 197.197C319.442 198.698 320.48 200.46 321.981 201.764C323.482 203.069 325.766 203.892 327.548 202.939C329.329 201.986 329.838 199.755 329.682 197.582C329.564 199.292 328.951 200.773 327.548 201.53Z" fill="black"/>
<path opacity="0.1" d="M318.098 197.184C315.915 196.589 313.967 195.342 312.513 193.609C311.06 191.876 310.171 189.741 309.966 187.488C309.594 192.61 313.458 197.745 318.515 198.73C318.3 198.543 318.145 198.296 318.071 198.021C317.996 197.745 318.006 197.454 318.098 197.184Z" fill="black"/>
</g>
<path d="M631.51 303.824C631.51 303.824 628.938 303.465 628.938 299.727C628.938 295.988 627.098 288.987 627.098 288.987C627.098 288.987 625.505 276.805 623.306 274.874C621.107 272.943 618.281 261.603 618.281 261.603C618.281 261.603 617.798 255.45 616.813 254.125C615.827 252.801 614.496 249.558 612.532 244.932C610.567 240.306 602.396 237.135 602.396 237.135C602.396 237.135 587.589 228.548 583.392 225.749C583.008 225.517 582.65 225.246 582.322 224.94C581.591 223.988 578.406 223.968 578.406 223.968C578.073 221.861 577.754 219.446 577.649 217.261C577.649 217.026 577.649 216.791 577.649 216.556C582.328 213.791 585.853 209.431 587.575 204.276C587.654 204.029 587.719 203.774 587.791 203.52C588.077 203.431 588.342 203.283 588.567 203.085C588.792 202.887 588.972 202.644 589.096 202.371C589.468 201.53 589.481 200.551 589.951 199.761C590.499 198.835 591.543 198.339 592.366 197.647C594.441 195.879 594.976 192.91 594.878 190.216C594.813 188.023 594.461 185.818 594.598 183.645C594.598 183.463 594.598 183.28 594.637 183.097C594.676 182.777 594.722 182.445 594.78 182.132C595.1 180.513 595.798 178.987 596.19 177.382C596.582 175.776 596.621 173.969 595.707 172.586C594.369 170.557 591.583 170.152 589.135 169.976C586.362 169.741 583.914 170.041 582.107 167.738C581.277 166.535 580.343 165.408 579.313 164.371C578.948 164.032 575.398 161.859 575.398 161.722C571.924 160.107 567.983 159.804 564.303 160.867C562.456 161.402 560.727 162.277 558.854 162.714C554.834 163.667 550.2 162.636 546.781 164.939C544.875 166.244 543.733 168.325 542.663 170.341C541.792 172.003 540.909 173.667 540.013 175.333C538.564 178.067 537.102 180.846 536.495 183.874C536.368 184.535 536.288 185.204 536.254 185.877C536.254 186.118 536.254 186.36 536.254 186.601C536.254 186.705 536.254 186.81 536.254 186.914C536.254 187.136 536.254 187.358 536.293 187.567C536.332 187.775 536.293 187.834 536.339 187.971C536.384 188.108 536.397 188.415 536.437 188.624C536.476 188.832 536.554 189.204 536.632 189.485C536.632 189.609 536.711 189.726 536.75 189.85C536.789 189.974 536.893 190.287 536.978 190.503C537.063 190.718 537.07 190.731 537.122 190.842C537.22 191.07 537.337 191.292 537.455 191.494C537.507 191.579 537.546 191.664 537.598 191.749C537.777 192.054 537.978 192.347 538.199 192.623C539.589 194.365 541.651 195.475 543.172 197.106C543.172 197.171 543.172 197.236 543.172 197.302C543.172 197.478 543.172 197.654 543.172 197.837C543.265 201.475 544.246 205.035 546.029 208.208C547.813 211.381 550.344 214.069 553.405 216.041C553.405 216.289 553.437 216.543 553.45 216.797C553.578 218.732 553.554 220.674 553.378 222.604C553.112 222.292 552.779 222.044 552.404 221.876C552.03 221.709 551.622 221.628 551.212 221.639C550.931 221.625 550.65 221.649 550.376 221.711L550.318 221.665V221.724C548.882 222.076 547.113 223.57 545.423 227.818C545.423 227.818 540.28 233.612 536.365 233.37C532.449 233.129 522.536 239.406 522.536 239.406C522.536 239.406 512.864 245.676 510.789 252.07C509.629 255.697 508.236 259.245 506.619 262.692L494.63 287.304L492.431 306.878C492.431 306.878 493.651 315.562 493.41 316.893C493.168 318.224 498.428 330.165 498.428 330.165C498.428 330.165 515.807 360.687 522.908 362.253L523.417 361.901C523.722 362.055 524.044 362.173 524.376 362.253L525.838 361.229C525.929 362.376 525.889 363.529 525.721 364.668C524.748 367.689 526.093 387.354 527.802 391.21C529.512 395.066 528.905 445.633 528.905 445.633L528.664 450.089C528.664 450.089 528.664 450.233 528.723 450.481L528.664 451.538L528.84 451.629C529.023 453.047 528.963 454.486 528.664 455.883C528.05 457.841 527.802 463.367 527.802 463.367C527.802 463.367 522.908 494.608 525.231 500.884C527.555 507.161 529.519 514.038 529.519 514.038C529.519 514.038 531.966 521.868 529.636 523.173C527.307 524.478 520.709 526.794 522.053 530.05C523.293 533.064 527.998 541.142 528.697 542.323L528.638 542.976L527.678 553.369C527.834 554.742 528.206 556.081 528.781 557.336C529.832 559.607 531.868 561.949 535.758 561.695C536.41 561.649 537.161 561.578 537.898 561.48C545.005 560.521 553.75 557.35 553.75 557.35C553.297 557.062 552.882 556.718 552.517 556.325C552.168 555.987 551.891 555.581 551.704 555.132C551.516 554.684 551.422 554.201 551.427 553.715C551.532 551.817 547.988 542.806 547.1 540.581L546.898 540.085C546.898 540.085 554.977 531.636 553.633 524.158C553.633 524.158 544.692 518.938 547.635 516.068C550.579 513.197 555.839 504.975 555.839 504.975C555.839 504.975 556.08 474.211 555.839 469.624C555.587 466.434 555.738 463.225 556.289 460.072C556.387 459.602 556.504 459.139 556.628 458.676C560.703 459.291 564.817 459.602 568.937 459.609C570.442 459.609 571.965 459.579 573.505 459.518C573.505 459.953 573.525 460.422 573.564 460.927C573.903 468.548 574.536 481.917 575.052 486.882C575.783 493.994 579.822 513.184 579.822 513.184C579.822 513.184 572.115 518.123 581.167 530.318C581.167 530.318 581.167 534.728 580.566 535.374C579.925 537.467 579.408 539.595 579.02 541.749C578.641 544.039 578.485 546.368 579.098 547.569C580.566 550.453 589.377 550.218 589.377 550.218C589.448 550.202 589.52 550.191 589.592 550.185C591.255 550.01 592.936 550.167 594.538 550.649C596.139 551.131 597.628 551.927 598.918 552.991C602.266 555.679 614.966 554.505 621.851 553.644C624.546 553.298 626.347 552.991 626.347 552.991C626.434 552.686 626.465 552.368 626.439 552.051C626.367 550.362 625.042 546.655 616.062 543.347C616.062 543.347 607.617 537.671 607.735 532.725H607.546H606.573C607.187 532.706 607.617 532.706 607.617 532.706C607.617 532.706 604.309 520.641 605.659 519.656C607.01 518.671 602.964 505.302 602.964 505.302C602.964 505.302 600.647 482.857 600.517 481.291C600.525 479.941 600.732 478.6 601.13 477.311L600.517 464.998C600.517 464.998 600.399 460.907 600.517 459.576C600.504 458.421 600.412 457.268 600.243 456.125C600.184 455.668 600.125 455.192 600.06 454.722C603.225 453.919 605.281 453.182 605.281 453.182L604.915 410.347C607.604 405.127 608.1 393.67 608.087 385.553C608.087 380.333 607.852 376.471 607.852 376.471L611.526 370.475C611.526 370.475 612.375 363.297 611.03 361.725C610.437 361.014 610.704 360.276 611.194 359.67C611.451 359.459 611.724 359.267 612.009 359.095C611.977 359.05 611.949 359.002 611.925 358.952C612.181 358.738 612.454 358.543 612.74 358.371C612.74 358.371 611.435 356.349 612.603 355.494C613.7 356.238 614.679 356.831 615.423 357.255C615.37 357.732 615.318 358.006 615.318 358.006L615.631 357.353C616.349 357.758 616.787 358.006 616.787 358.006C616.787 358.006 622.543 346.542 622.419 344.858C622.295 343.175 626.334 336.05 626.334 336.05C626.334 336.05 626.824 332.305 629.03 330.739C631.235 329.173 630.739 317.826 630.739 317.826C630.739 317.826 631.353 311.915 632.821 309.507C634.29 307.1 631.51 303.824 631.51 303.824ZM521.374 298.794L521.485 301.528C520.833 300.477 520.363 299.727 520.363 299.727L521.374 298.794Z" fill="url(#paint63_linear)"/>
<path d="M617.126 353.047L615.716 359.05C615.716 359.05 604.426 353.275 602.396 345.968C600.367 338.66 605.797 335.874 605.797 335.874L616.323 340.324L617.126 353.047Z" fill="white"/>
<path opacity="0.1" d="M617.126 353.047L615.716 359.05C615.716 359.05 604.426 353.275 602.396 345.968C600.367 338.66 605.797 335.874 605.797 335.874L616.323 340.324L617.126 353.047Z" fill="black"/>
<path d="M553.764 557.343C553.764 557.343 543.322 561.18 536.143 561.662C532.332 561.917 530.328 559.581 529.297 557.33C528.737 556.088 528.371 554.768 528.214 553.415L529.16 543.073L529.656 537.573L544.908 533.606L547.068 540.216L547.27 540.711C548.131 542.923 551.616 551.888 551.512 553.761C551.504 554.245 551.594 554.726 551.776 555.175C551.959 555.623 552.231 556.03 552.576 556.371C552.929 556.744 553.328 557.071 553.764 557.343Z" fill="white"/>
<path d="M625.055 552.084C625.082 552.4 625.051 552.719 624.964 553.024C624.964 553.024 602.631 556.743 598.063 553.024C596.779 551.937 595.282 551.131 593.668 550.655C592.055 550.18 590.36 550.047 588.692 550.264C588.692 550.264 580.051 550.499 578.609 547.654C578.008 546.46 578.165 544.144 578.537 541.866C578.917 539.725 579.422 537.607 580.051 535.524L580.397 535.25L582.453 533.6L606.521 532.888H606.704C606.586 537.808 614.868 543.452 614.868 543.452C623.685 546.714 624.983 550.401 625.055 552.084Z" fill="white"/>
<path opacity="0.1" d="M625.062 552.084C625.085 552.401 625.052 552.719 624.964 553.024C624.964 553.024 602.631 556.743 598.07 553.024C596.785 551.936 595.287 551.129 593.672 550.654C592.057 550.179 590.361 550.046 588.691 550.264C588.691 550.264 580.044 550.499 578.602 547.654C578.008 546.46 578.158 544.144 578.53 541.86C581.859 542.193 587.112 543.021 589.174 545.005C592.294 548.006 597.58 551.008 600.817 551.249C603.375 551.406 618.588 551.888 625.062 552.084Z" fill="black"/>
<path opacity="0.1" d="M553.764 557.343C553.764 557.343 543.322 561.18 536.143 561.662C532.332 561.917 530.328 559.581 529.297 557.33C531.96 558.224 535.647 559.157 537.585 558.302C539.882 557.278 548.027 556.625 552.595 556.345C552.94 556.727 553.333 557.062 553.764 557.343Z" fill="black"/>
<path d="M569.257 248.142C560.642 244.795 549.561 233.736 552.328 228.568C552.939 227.263 553.304 225.856 553.405 224.418C553.583 222.466 553.609 220.503 553.483 218.546C553.289 215.34 552.903 212.148 552.328 208.987C552.328 208.987 579.222 209.594 577.656 213.555C577.199 214.723 577.121 216.739 577.251 218.99C577.382 221.241 577.702 223.805 578.041 225.965C578.504 228.92 578.981 231.184 578.981 231.184C578.981 231.184 577.33 233.488 576.37 233.612C575.411 233.736 581.617 252.938 569.257 248.142Z" fill="#CF6F80"/>
<path opacity="0.1" d="M547.244 540.679L547.042 540.901C539.001 531.179 529.277 543.302 529.277 543.302L529.134 543.041L529.63 537.54L544.881 533.573L547.042 540.183L547.244 540.679Z" fill="black"/>
<path opacity="0.1" d="M606.717 533.573C606.717 533.573 600.843 533.456 597.711 536.223C594.578 538.989 579.437 536.816 580.09 536.223C580.28 535.921 580.397 535.579 580.429 535.224L582.485 533.573L606.554 532.862C606.645 533.319 606.717 533.573 606.717 533.573Z" fill="black"/>
<path d="M557.249 457.228C556.812 458.309 556.48 459.43 556.257 460.575C555.712 463.71 555.561 466.902 555.806 470.075C556.048 474.642 555.806 505.25 555.806 505.25C555.806 505.25 550.644 513.412 547.76 516.289C544.875 519.167 553.633 524.334 553.633 524.334C554.938 531.779 547.029 540.183 547.029 540.183C538.988 530.461 529.264 542.578 529.264 542.578C529.264 542.578 523.978 533.443 522.66 530.181C521.342 526.918 527.822 524.667 530.1 523.336C532.377 522.005 529.982 514.202 529.982 514.202C529.982 514.202 528.064 507.357 525.779 501.113C523.495 494.869 528.299 463.791 528.299 463.791C528.299 463.791 528.547 458.265 529.14 456.34C529.437 454.951 529.496 453.521 529.317 452.112C529.277 451.636 529.232 451.244 529.199 450.97C529.167 450.696 529.14 450.579 529.14 450.579L529.232 450.422L532.495 444.341C532.495 444.341 558.815 453.397 557.249 457.228Z" fill="url(#paint64_linear)"/>
<path d="M606.717 532.856C606.717 532.856 600.843 532.732 597.711 535.466C594.578 538.199 579.437 536.066 580.09 535.466C580.743 534.865 580.684 530.429 580.684 530.429C571.802 518.299 579.379 513.379 579.379 513.379C579.379 513.379 575.417 494.295 574.699 487.215C574.197 482.276 573.577 468.946 573.244 461.397C573.1 458.134 573.016 455.883 573.016 455.883L580.207 454.455L581.141 454.272L598.644 450.755C598.644 450.755 599.127 454.017 599.453 456.686C599.618 457.825 599.708 458.974 599.721 460.125C599.61 461.429 599.721 465.52 599.721 465.52L600.321 477.761C599.934 479.046 599.732 480.379 599.721 481.721C599.845 483.287 602.122 505.608 602.122 505.608C602.122 505.608 606.084 518.932 604.733 519.891C603.382 520.85 606.717 532.856 606.717 532.856Z" fill="url(#paint65_linear)"/>
<path opacity="0.1" d="M577.656 213.574C577.199 214.742 577.12 216.758 577.251 219.009C573.649 221.178 569.507 222.287 565.303 222.209C561.099 222.13 557.002 220.867 553.483 218.566C553.289 215.359 552.903 212.167 552.328 209.007C552.328 209.007 579.222 209.614 577.656 213.574Z" fill="black"/>
<path d="M588.039 199.168C588.11 205.088 585.826 210.793 581.689 215.029C577.552 219.266 571.902 221.685 565.98 221.756C560.059 221.827 554.352 219.544 550.115 215.408C545.878 211.272 543.458 205.623 543.387 199.703C543.387 199.52 543.387 199.35 543.387 199.168C543.387 193.246 545.74 187.567 549.928 183.38C554.116 179.192 559.796 176.84 565.719 176.84C571.642 176.84 577.323 179.192 581.511 183.38C585.699 187.567 588.052 193.246 588.052 199.168H588.039Z" fill="#CF6F80"/>
<path opacity="0.1" d="M569.257 248.142C560.642 244.795 549.561 233.736 552.328 228.568C552.939 227.263 553.304 225.856 553.405 224.418L565.197 234.114L572.494 240.097L578.041 225.984C578.504 228.94 578.981 231.204 578.981 231.204C578.981 231.204 577.33 233.507 576.37 233.631C575.411 233.755 581.617 252.938 569.257 248.142Z" fill="black"/>
<path d="M599.753 290.99L589.905 456.392L577.062 457.234L543.798 361.327L549.254 247.464L550.409 223.407L565.197 235.55L572.494 241.533L578.204 227.002L588.822 236.254L599.753 290.99Z" fill="url(#paint66_linear)"/>
<path opacity="0.1" d="M557.248 457.227C556.812 458.309 556.48 459.43 556.257 460.575C546.902 459.135 537.817 456.3 529.304 452.164L529.127 452.073L529.186 451.022V450.474L532.449 444.393C532.449 444.393 558.815 453.397 557.248 457.227Z" fill="black"/>
<path opacity="0.1" d="M580.423 460.601C578.034 461.009 575.624 461.286 573.205 461.429C573.061 458.167 572.977 455.916 572.977 455.916L580.208 454.454L580.423 460.601Z" fill="black"/>
<path opacity="0.1" d="M599.479 456.686C594.839 457.893 587.667 459.25 581.258 458.402L581.167 454.272L598.67 450.755C598.67 450.755 599.133 453.991 599.479 456.686Z" fill="black"/>
<path opacity="0.1" d="M581.141 459.159C554.383 463.726 529.878 450.631 529.878 450.631L530.113 446.194C530.113 446.194 530.72 395.895 529.036 392.039C527.352 388.183 526.04 368.654 526.993 365.672C527.946 362.691 523.515 317.67 523.515 317.67L522.797 299.401L496.503 288.72L508.25 264.232C509.836 260.8 511.201 257.269 512.336 253.662C514.378 247.301 523.861 241.056 523.861 241.056C523.861 241.056 533.585 234.819 537.429 235.054C541.272 235.289 546.311 229.534 546.311 229.534C550.031 220.053 553.398 224.314 553.398 224.314C553.398 224.771 553.398 224.314 553.215 225.717C551.91 236.124 574.321 269.008 574.641 269.596L576.801 321.572L578.961 387.348L581.141 459.159Z" fill="black"/>
<path d="M580.423 459.159C553.666 463.726 529.153 450.631 529.153 450.631L529.395 446.194C529.395 446.194 529.995 395.895 528.312 392.039C526.628 388.183 525.316 368.635 526.275 365.627C527.235 362.619 522.777 317.644 522.777 317.644L522.053 299.375L495.766 288.694L507.513 264.206C509.095 260.774 510.46 257.246 511.598 253.643C513.641 247.301 523.156 241.05 523.156 241.05C523.156 241.05 532.88 234.812 536.717 235.047C540.555 235.282 545.619 229.534 545.619 229.534C549.345 220.053 553.45 224.314 553.45 224.314C553.45 224.771 553.059 224.966 553.268 225.717C556.139 235.811 573.655 269.008 573.975 269.596L576.135 321.572L578.25 387.38L580.423 459.159Z" fill="white"/>
<path opacity="0.1" d="M573.211 271.064C570.333 269.863 555.088 252.462 555.088 252.462V248.501C554.534 247.196 551.231 247.992 548.562 248.906L549.711 224.849L551.016 225.932C553.868 236.019 572.898 270.483 573.211 271.064Z" fill="black"/>
<path d="M573.936 269.628C571.051 268.421 555.806 251.026 555.806 251.026V247.059C555.252 245.754 551.956 246.55 549.28 247.464L550.409 223.433L551.714 224.51C554.592 234.584 573.616 269.041 573.936 269.628Z" fill="white"/>
<path opacity="0.1" d="M529.878 356.407C530.237 356.407 548.484 354.489 548.484 354.489C548.484 354.489 559.533 376.216 558.808 381.495C558.084 386.773 556.772 391.458 552.328 390.63C547.884 389.801 528.409 391.282 528.409 391.282L529.878 356.407Z" fill="black"/>
<path d="M529.153 354.965C529.519 354.965 547.766 353.047 547.766 353.047C547.766 353.047 558.808 374.807 558.09 380.027C557.372 385.247 556.048 389.99 551.61 389.161C547.172 388.333 527.685 389.814 527.685 389.814L529.153 354.965Z" fill="white"/>
<path d="M542.904 344.793C542.904 344.793 559.65 353.797 560.009 356.538C560.368 359.278 551.486 355.337 549.567 354.854C548.304 354.554 547.018 354.354 545.723 354.254L532.926 354.6L542.904 344.793Z" fill="#CF6F80"/>
<path opacity="0.1" d="M568.532 272.186C569.505 272.186 570.294 271.397 570.294 270.424C570.294 269.451 569.505 268.663 568.532 268.663C567.559 268.663 566.77 269.451 566.77 270.424C566.77 271.397 567.559 272.186 568.532 272.186Z" fill="black"/>
<path d="M568.532 271.468C569.505 271.468 570.294 270.679 570.294 269.707C570.294 268.734 569.505 267.945 568.532 267.945C567.559 267.945 566.77 268.734 566.77 269.707C566.77 270.679 567.559 271.468 568.532 271.468Z" fill="#3F3D56"/>
<path opacity="0.1" d="M571.776 348.447C572.749 348.447 573.538 347.658 573.538 346.685C573.538 345.712 572.749 344.924 571.776 344.924C570.803 344.924 570.014 345.712 570.014 346.685C570.014 347.658 570.803 348.447 571.776 348.447Z" fill="black"/>
<path d="M571.776 347.723C572.749 347.723 573.538 346.934 573.538 345.961C573.538 344.988 572.749 344.199 571.776 344.199C570.803 344.199 570.014 344.988 570.014 345.961C570.014 346.934 570.803 347.723 571.776 347.723Z" fill="#3F3D56"/>
<path opacity="0.1" d="M570.294 310.316C571.267 310.316 572.056 309.528 572.056 308.555C572.056 307.582 571.267 306.793 570.294 306.793C569.321 306.793 568.532 307.582 568.532 308.555C568.532 309.528 569.321 310.316 570.294 310.316Z" fill="black"/>
<path d="M570.294 309.599C571.267 309.599 572.056 308.81 572.056 307.837C572.056 306.864 571.267 306.075 570.294 306.075C569.321 306.075 568.532 306.864 568.532 307.837C568.532 308.81 569.321 309.599 570.294 309.599Z" fill="#3F3D56"/>
<path d="M610.913 353.889C610.913 353.889 612.114 355.69 610.913 356.499C609.712 357.308 611.03 359.382 611.03 359.382C611.03 359.382 608.035 361.131 609.353 362.717C610.671 364.302 609.836 371.421 609.836 371.421L606.234 377.417C606.234 377.417 606.449 381.26 606.462 386.454C606.462 394.557 605.986 405.95 603.349 411.143L603.702 453.756C603.702 453.756 591.087 458.369 580.527 456.96L578.961 388.581C578.961 388.581 581.245 349.804 582.087 342.366C582.58 338.504 582.78 334.611 582.687 330.719C582.687 330.719 582.328 319.079 581.121 313.683C581.121 313.683 579.816 290.272 579.685 283.793C579.627 280.694 579.79 271.651 579.973 263.051C580.175 253.649 580.403 244.782 580.403 244.782L578.021 225.932C578.021 225.932 580.403 225.697 581.121 226.65C581.443 226.95 581.792 227.219 582.165 227.452C586.283 230.232 600.811 238.779 600.811 238.779C600.811 238.779 608.851 241.976 610.776 246.557C612.701 251.137 614.039 254.386 614.972 255.691C615.905 256.996 616.415 263.13 616.415 263.13C616.415 263.13 619.182 274.417 621.342 276.329C623.502 278.241 625.055 290.377 625.055 290.377L605.966 305.384C605.966 305.384 604.289 330.347 603.93 331.313C603.571 332.279 610.913 353.889 610.913 353.889Z" fill="white"/>
<path d="M611.637 353.889C611.637 353.889 612.832 355.69 611.637 356.499C610.443 357.308 611.748 359.383 611.748 359.383C611.748 359.383 608.753 361.131 610.071 362.717C611.39 364.302 610.554 371.421 610.554 371.421L606.965 377.417C606.965 377.417 607.18 381.26 607.2 386.454C607.2 394.557 606.723 405.95 604.087 411.143L604.446 453.756C604.446 453.756 591.831 458.369 581.271 456.96L579.712 388.581C579.712 388.581 581.989 349.804 582.838 342.366C583.331 338.504 583.529 334.611 583.431 330.719C583.431 330.719 583.073 319.079 581.872 313.683C581.872 313.683 580.567 290.273 580.429 283.793C580.371 280.694 580.534 271.651 580.717 263.051C580.919 253.649 581.147 244.782 581.147 244.782L578.002 225.678C578.002 225.678 581.147 225.678 581.872 226.65C582.19 226.954 582.54 227.223 582.916 227.452C587.027 230.232 601.555 238.779 601.555 238.779C601.555 238.779 609.575 241.976 611.533 246.557C613.491 251.137 614.796 254.386 615.729 255.691C616.663 256.996 617.172 263.13 617.172 263.13C617.172 263.13 619.939 274.417 622.099 276.329C624.259 278.241 625.819 290.377 625.819 290.377L606.73 305.384C606.73 305.384 605.053 330.347 604.687 331.313C604.322 332.279 611.637 353.889 611.637 353.889Z" fill="white"/>
<path opacity="0.1" d="M588.776 250.322L590.506 255.346L581.428 264.48C581.63 255.078 581.859 246.211 581.859 246.211L578.713 227.113C578.713 227.113 581.859 227.113 582.583 228.085C582.902 228.389 583.252 228.658 583.627 228.888L591.341 251.131L588.776 250.322Z" fill="black"/>
<path d="M588.039 248.88L589.768 253.897L580.697 263.032C580.893 253.63 581.128 244.762 581.128 244.762L577.976 225.658C577.976 225.658 581.128 225.658 581.846 226.63C582.166 226.932 582.516 227.201 582.89 227.433L590.649 249.695L588.039 248.88Z" fill="white"/>
<path opacity="0.1" d="M588.039 199.168C588.041 201.519 587.671 203.855 586.942 206.09C586.82 206.111 586.694 206.106 586.573 206.077C586.452 206.048 586.338 205.995 586.238 205.921C586.061 200.048 583.177 194.529 579.62 189.837C578.62 188.422 577.409 187.168 576.031 186.118C574.635 185.071 572.9 184.58 571.162 184.741C569.204 185.009 567.475 186.34 565.498 186.51C562.887 186.725 560.551 184.918 557.96 184.833C556.906 184.841 555.867 185.075 554.911 185.519C553.956 185.962 553.106 186.605 552.419 187.404C551.057 189.01 550.045 190.884 549.45 192.904C548.424 195.969 547.865 199.172 547.792 202.404C547.759 204.231 547.583 206.521 545.886 207.187C546.015 205.844 545.862 204.489 545.439 203.209C545.015 201.928 544.33 200.75 543.426 199.748L543.387 199.703C543.387 199.52 543.387 199.35 543.387 199.168C543.387 193.246 545.74 187.567 549.928 183.38C554.116 179.192 559.796 176.84 565.719 176.84C571.642 176.84 577.323 179.192 581.511 183.38C585.699 187.567 588.052 193.246 588.052 199.168H588.039Z" fill="black"/>
<path d="M574.987 163.719C571.595 162.124 567.738 161.822 564.14 162.871C562.332 163.406 560.629 164.273 558.795 164.71C554.88 165.657 550.311 164.632 546.95 166.922C545.084 168.227 543.961 170.289 542.917 172.299L540.307 177.264C538.884 179.985 537.448 182.751 536.854 185.746C536.26 188.741 536.619 192.095 538.519 194.509C539.896 196.258 541.945 197.36 543.446 199.011C544.348 200.017 545.031 201.2 545.453 202.483C545.876 203.767 546.028 205.124 545.9 206.469C547.596 205.816 547.766 203.513 547.805 201.686C547.879 198.454 548.437 195.252 549.463 192.186C550.058 190.166 551.07 188.292 552.432 186.686C553.119 185.886 553.968 185.243 554.924 184.798C555.879 184.354 556.919 184.119 557.973 184.109C560.583 184.2 562.926 186.007 565.511 185.785C567.468 185.622 569.204 184.291 571.175 184.024C572.913 183.859 574.65 184.35 576.044 185.4C577.424 186.447 578.632 187.702 579.627 189.12C583.19 193.817 586.081 199.311 586.251 205.203C586.988 205.738 588.052 205.033 588.417 204.198C588.783 203.363 588.796 202.384 589.259 201.588C589.794 200.668 590.819 200.172 591.622 199.481C593.658 197.726 594.167 194.77 594.089 192.088C594.01 189.407 593.488 186.686 593.997 184.05C594.304 182.438 594.996 180.918 595.374 179.319C595.753 177.721 595.798 175.926 594.904 174.55C593.599 172.534 590.852 172.129 588.457 171.94C585.735 171.705 583.301 172.005 581.565 169.715C580.748 168.521 579.831 167.399 578.824 166.361C578.465 166.015 574.987 163.862 574.987 163.719Z" fill="#512E4E"/>
<path opacity="0.1" d="M504.034 301.312L497.221 288.713L495.061 308.157C495.061 308.157 496.262 316.796 496.02 318.12C495.779 319.445 500.941 331.32 500.941 331.32C500.941 331.32 517.994 361.692 524.957 363.252L548.451 346.444L542.212 338.523C542.212 338.523 540.052 337.681 539.51 338.523C539.51 338.523 527.92 318.596 526.726 317.161C525.531 315.726 525.76 312.835 525.76 312.835C525.76 312.835 523.959 310.917 524.559 309.116C525.159 307.315 521.113 301.077 521.113 301.077L524.833 297.6L504.034 301.312Z" fill="black"/>
<path d="M497.58 287.271L495.779 288.713L493.619 308.157C493.619 308.157 494.819 316.796 494.578 318.12C494.336 319.445 499.505 331.32 499.505 331.32C499.505 331.32 516.551 361.692 523.515 363.252L547.048 346.444L540.803 338.523C540.803 338.523 538.642 337.681 538.101 338.523C538.101 338.523 526.517 318.596 525.316 317.161C524.115 315.726 524.357 312.835 524.357 312.835C524.357 312.835 522.555 310.917 523.156 309.116C523.756 307.315 519.671 301.077 519.671 301.077L523.391 297.6L497.58 287.271Z" fill="white"/>
<path opacity="0.1" d="M609.353 363.467C610.659 365.053 609.836 372.178 609.836 372.178L606.234 378.135C606.234 378.135 606.449 381.984 606.462 387.178L600.406 389.07C599.858 389.241 599.277 389.278 598.711 389.179C598.145 389.08 597.612 388.847 597.155 388.499C596.697 388.152 596.33 387.701 596.083 387.182C595.835 386.664 595.716 386.094 595.733 385.521L596.784 351.853L610.913 357.249C609.712 358.084 611.031 360.133 611.031 360.133C611.031 360.133 608.035 361.882 609.353 363.467Z" fill="black"/>
<path d="M610.071 362.749C611.376 364.328 610.554 371.453 610.554 371.453L606.965 377.417C606.965 377.417 607.18 381.26 607.2 386.454L601.032 388.378C600.497 388.546 599.929 388.584 599.376 388.487C598.823 388.391 598.301 388.164 597.854 387.825C597.407 387.485 597.047 387.044 596.806 386.538C596.564 386.032 596.447 385.475 596.464 384.914L597.515 351.129L611.637 356.538C610.43 357.373 611.748 359.422 611.748 359.422C611.748 359.422 608.753 361.164 610.071 362.749Z" fill="white"/>
<path d="M614.757 346.685C614.757 346.685 613.798 352.812 611.396 353.171C608.994 353.53 607.918 363.082 605.522 362.749C603.127 362.417 604.713 353.863 604.798 352.205C604.883 350.548 602.188 343.684 604.198 342.125C606.208 340.565 612.603 342.125 612.603 342.125L614.757 346.685Z" fill="#CF6F80"/>
<path opacity="0.1" d="M619.834 299.512L624.357 290.377C624.357 290.377 626.165 297.339 626.165 301.058C626.165 304.777 628.684 305.142 628.684 305.142C628.684 305.142 631.444 308.405 629.989 310.786C628.534 313.168 627.953 319.066 627.953 319.066C627.953 319.066 628.429 330.347 626.269 331.907C624.109 333.466 623.626 337.192 623.626 337.192C623.626 337.192 619.665 344.271 619.789 345.955C619.913 347.638 614.268 359.037 614.268 359.037C614.268 359.037 617.028 344.871 600.941 338.751C600.941 338.751 600.817 333.949 602.018 332.631C603.219 331.313 605.092 330.674 603.917 324.045C602.742 317.415 603.578 309.423 603.578 307.824C603.578 306.225 607.18 296.262 607.18 296.262L619.834 299.512Z" fill="black"/>
<path d="M621.844 289.072L625.799 290.377C625.799 290.377 627.607 297.339 627.607 301.058C627.607 304.777 630.126 305.142 630.126 305.142C630.126 305.142 632.887 308.405 631.431 310.786C629.976 313.168 629.389 319.066 629.389 319.066C629.389 319.066 629.872 330.347 627.711 331.907C625.551 333.466 625.101 337.192 625.101 337.192C625.101 337.192 621.14 344.271 621.264 345.955C621.388 347.638 615.736 359.037 615.736 359.037C615.736 359.037 618.496 344.871 602.409 338.751C602.409 338.751 602.292 333.949 603.493 332.631C604.694 331.313 606.567 330.674 605.392 324.045C604.217 317.415 605.053 309.423 605.053 307.824C605.053 306.225 608.655 296.262 608.655 296.262L621.844 289.072Z" fill="white"/>
<path opacity="0.1" d="M534.472 525.835C534.472 525.835 540.777 521.875 544.914 524.752C549.052 527.629 534.472 525.835 534.472 525.835Z" fill="black"/>
<path opacity="0.1" d="M583.471 513.588C583.471 513.588 589.05 512.871 593.736 517.914C598.422 522.958 583.471 513.588 583.471 513.588Z" fill="black"/>
<g opacity="0.1">
<path opacity="0.1" d="M591.622 198.045C590.819 198.743 589.788 199.233 589.253 200.153C588.796 200.942 588.783 201.921 588.417 202.763C588.052 203.604 586.988 204.303 586.244 203.768C586.074 197.895 583.183 192.382 579.627 187.684C578.632 186.268 577.423 185.016 576.044 183.972C574.648 182.919 572.909 182.426 571.169 182.588C569.211 182.856 567.488 184.187 565.511 184.356C562.9 184.572 560.557 182.764 557.966 182.68C556.914 182.688 555.875 182.921 554.92 183.365C553.966 183.808 553.117 184.451 552.432 185.25C551.07 186.857 550.058 188.73 549.463 190.751C548.437 193.816 547.878 197.019 547.805 200.251C547.766 202.071 547.596 204.342 545.913 205.02C545.952 205.505 545.952 205.991 545.913 206.475C547.616 205.823 547.786 203.52 547.825 201.693C547.898 198.461 548.457 195.258 549.482 192.193C550.078 190.172 551.089 188.299 552.452 186.692C553.137 185.893 553.986 185.25 554.94 184.805C555.895 184.361 556.933 184.126 557.986 184.115C560.596 184.206 562.946 186.014 565.53 185.792C567.488 185.629 569.224 184.298 571.188 184.03C572.928 183.866 574.667 184.357 576.063 185.407C577.443 186.454 578.652 187.708 579.646 189.126C583.203 193.824 586.094 199.318 586.264 205.21C587.008 205.745 588.071 205.04 588.437 204.205C588.802 203.37 588.815 202.391 589.272 201.595C589.807 200.675 590.839 200.179 591.641 199.487C593.677 197.732 594.186 194.776 594.108 192.095C594.108 192.01 594.108 191.932 594.108 191.847C593.978 194.183 593.358 196.551 591.622 198.045Z" fill="black"/>
<path opacity="0.1" d="M543.439 197.589C541.945 195.938 539.895 194.829 538.518 193.08C537.355 191.536 536.693 189.674 536.619 187.743C536.415 190.158 537.089 192.565 538.518 194.522C539.895 196.271 541.945 197.373 543.439 199.024C544.883 200.638 545.75 202.685 545.906 204.844C546.004 203.531 545.836 202.212 545.412 200.965C544.988 199.718 544.317 198.57 543.439 197.589Z" fill="black"/>
<path opacity="0.1" d="M595.374 177.884C594.989 179.482 594.304 181.003 593.991 182.614C593.803 183.704 593.735 184.811 593.788 185.916C593.81 185.292 593.878 184.67 593.991 184.056C594.304 182.445 594.989 180.924 595.374 179.326C595.596 178.444 595.668 177.531 595.59 176.625C595.548 177.049 595.476 177.47 595.374 177.884Z" fill="black"/>
</g>
<path opacity="0.1" d="M86.6216 547.347C121.742 547.347 150.212 542.775 150.212 537.136C150.212 531.496 121.742 526.925 86.6216 526.925C51.5014 526.925 23.0308 531.496 23.0308 537.136C23.0308 542.775 51.5014 547.347 86.6216 547.347Z" fill="url(#paint67_linear)"/>
<path d="M88.6708 341.518H84.5789V433.628H88.6708V341.518Z" fill="#535461"/>
<path d="M114.39 433.354L114.129 437.503L113.77 443.376L113.62 445.816L113.255 451.688L113.098 454.128L112.739 460.001L108.608 526.598C108.432 529.464 107.169 532.154 105.077 534.121C102.985 536.087 100.222 537.182 97.3506 537.182H75.8991C73.0198 537.183 70.2492 536.082 68.1557 534.106C66.0623 532.129 64.8049 529.427 64.6415 526.553L60.5105 459.955L60.1515 454.083L60.0014 451.642L59.6294 445.77L59.4793 443.33L59.1204 437.458L58.8594 433.308C58.8142 432.512 58.9314 431.716 59.2038 430.968C59.4762 430.219 59.8982 429.533 60.444 428.953C60.9898 428.372 61.648 427.909 62.3786 427.591C63.1092 427.273 63.8969 427.107 64.6937 427.103H108.563C109.363 427.107 110.154 427.275 110.887 427.597C111.62 427.918 112.28 428.386 112.825 428.971C113.371 429.556 113.792 430.247 114.061 431.001C114.33 431.754 114.442 432.555 114.39 433.354Z" fill="#3F3D56"/>
<path d="M114.129 437.497L113.764 443.356H59.4794L59.1139 437.497H114.129Z" fill="#9D9CB5"/>
<path d="M113.614 445.796L113.255 451.655H59.9949L59.6295 445.796H113.614Z" fill="#9D9CB5"/>
<path d="M113.098 454.102L112.739 459.955H60.5105L60.145 454.102H113.098Z" fill="#9D9CB5"/>
<path d="M52.8944 376.047C76.728 393.285 86.6542 420.245 86.6542 420.245C86.6542 420.245 57.9392 419.26 34.0991 402.022C10.2591 384.783 0.319763 357.843 0.319763 357.843C0.319763 357.843 29.0348 358.808 52.8944 376.047Z" fill="url(#paint68_linear)"/>
<path d="M0.319763 357.843C0.319763 357.843 30.1247 374.383 39.6855 388.078C49.2463 401.774 86.6281 420.258 86.6281 420.258" stroke="#535461" stroke-width="2" stroke-miterlimit="10"/>
<path d="M68.2505 341.322C81.2245 350.698 86.6281 365.372 86.6281 365.372C86.6281 365.372 70.9654 364.837 58.024 355.461C45.0827 346.085 39.6464 331.404 39.6464 331.404C39.6464 331.404 55.283 331.939 68.2505 341.322Z" fill="url(#paint69_linear)"/>
<path d="M39.6464 331.404C39.6464 331.404 55.8704 340.409 61.0783 347.86C66.2861 355.311 86.6281 365.372 86.6281 365.372" stroke="#535461" stroke-width="2" stroke-miterlimit="10"/>
<path d="M105.476 364.628C90.5765 380.999 87.4243 402.394 87.4243 402.394C87.4243 402.394 108.432 397.239 123.318 380.862C138.204 364.485 141.37 343.097 141.37 343.097C141.37 343.097 120.375 348.258 105.476 364.628Z" fill="url(#paint70_linear)"/>
<path d="M141.383 343.103C141.383 343.103 121.974 359.885 117.04 371.447C112.106 383.009 87.4243 402.394 87.4243 402.394" stroke="#535461" stroke-width="2" stroke-miterlimit="10"/>
</g>
<defs>
<linearGradient id="paint0_linear" x1="82.3013" y1="220.667" x2="82.3013" y2="386.493" gradientUnits="userSpaceOnUse">
<stop stop-color="#FBC2EB"/>
<stop offset="1" stop-color="#A6C1EE"/>
</linearGradient>
<linearGradient id="paint1_linear" x1="97.9347" y1="74.2776" x2="97.9347" y2="120.173" gradientUnits="userSpaceOnUse">
<stop stop-color="#FBC2EB"/>
<stop offset="1" stop-color="#A6C1EE"/>
</linearGradient>
<linearGradient id="paint2_linear" x1="83.091" y1="122.952" x2="83.091" y2="217.874" gradientUnits="userSpaceOnUse">
<stop stop-color="#FBC2EB"/>
<stop offset="1" stop-color="#A6C1EE"/>
</linearGradient>
<linearGradient id="paint3_linear" x1="446.96" y1="0.00204468" x2="446.96" y2="470.99" gradientUnits="userSpaceOnUse">
<stop stop-color="#FBC2EB"/>
<stop offset="1" stop-color="#A6C1EE"/>
</linearGradient>
<linearGradient id="paint4_linear" x1="83.091" y1="170.837" x2="83.091" y2="217.874" gradientUnits="userSpaceOnUse">
<stop stop-color="#FBC2EB"/>
<stop offset="1" stop-color="#A6C1EE"/>
</linearGradient>
<linearGradient id="paint5_linear" x1="82.3013" y1="220.667" x2="82.3013" y2="386.493" gradientUnits="userSpaceOnUse">
<stop stop-color="#FBC2EB"/>
<stop offset="1" stop-color="#A6C1EE"/>
</linearGradient>
<linearGradient id="paint6_linear" x1="156.814" y1="109.015" x2="156.814" y2="217.874" gradientUnits="userSpaceOnUse">
<stop stop-color="#FBC2EB"/>
<stop offset="1" stop-color="#A6C1EE"/>
</linearGradient>
<linearGradient id="paint7_linear" x1="156.81" y1="220.66" x2="156.81" y2="310.917" gradientUnits="userSpaceOnUse">
<stop stop-color="#FBC2EB"/>
<stop offset="1" stop-color="#A6C1EE"/>
</linearGradient>
<linearGradient id="paint8_linear" x1="156.817" y1="313.716" x2="156.817" y2="393.298" gradientUnits="userSpaceOnUse">
<stop stop-color="#FBC2EB"/>
<stop offset="1" stop-color="#A6C1EE"/>
</linearGradient>
<linearGradient id="paint9_linear" x1="472.487" y1="126.945" x2="472.487" y2="217.868" gradientUnits="userSpaceOnUse">
<stop stop-color="#FBC2EB"/>
<stop offset="1" stop-color="#A6C1EE"/>
</linearGradient>
<linearGradient id="paint10_linear" x1="391.116" y1="220.66" x2="391.116" y2="310.923" gradientUnits="userSpaceOnUse">
<stop stop-color="#FBC2EB"/>
<stop offset="1" stop-color="#A6C1EE"/>
</linearGradient>
<linearGradient id="paint11_linear" x1="391.439" y1="312.47" x2="391.439" y2="469.67" gradientUnits="userSpaceOnUse">
<stop stop-color="#FBC2EB"/>
<stop offset="1" stop-color="#A6C1EE"/>
</linearGradient>
<linearGradient id="paint12_linear" x1="586.74" y1="87.0987" x2="586.74" y2="120.173" gradientUnits="userSpaceOnUse">
<stop stop-color="#FBC2EB"/>
<stop offset="1" stop-color="#A6C1EE"/>
</linearGradient>
<linearGradient id="paint13_linear" x1="586.721" y1="122.952" x2="586.721" y2="217.876" gradientUnits="userSpaceOnUse">
<stop stop-color="#FBC2EB"/>
<stop offset="1" stop-color="#A6C1EE"/>
</linearGradient>
<linearGradient id="paint14_linear" x1="607.96" y1="220.667" x2="607.96" y2="470.99" gradientUnits="userSpaceOnUse">
<stop stop-color="#FBC2EB"/>
<stop offset="1" stop-color="#A6C1EE"/>
</linearGradient>
<linearGradient id="paint15_linear" x1="742.438" y1="313.716" x2="742.438" y2="403.111" gradientUnits="userSpaceOnUse">
<stop stop-color="#FBC2EB"/>
<stop offset="1" stop-color="#A6C1EE"/>
</linearGradient>
<linearGradient id="paint16_linear" x1="743.821" y1="235.491" x2="743.821" y2="310.923" gradientUnits="userSpaceOnUse">
<stop stop-color="#FBC2EB"/>
<stop offset="1" stop-color="#A6C1EE"/>
</linearGradient>
<linearGradient id="paint17_linear" x1="482.025" y1="152.222" x2="482.025" y2="180.729" gradientUnits="userSpaceOnUse">
<stop stop-color="#FBC2EB"/>
<stop offset="1" stop-color="#A6C1EE"/>
</linearGradient>
<linearGradient id="paint18_linear" x1="482.025" y1="211.31" x2="482.025" y2="217.874" gradientUnits="userSpaceOnUse">
<stop stop-color="#FBC2EB"/>
<stop offset="1" stop-color="#A6C1EE"/>
</linearGradient>
<linearGradient id="paint19_linear" x1="482.025" y1="220.66" x2="482.025" y2="239.81" gradientUnits="userSpaceOnUse">
<stop stop-color="#FBC2EB"/>
<stop offset="1" stop-color="#A6C1EE"/>
</linearGradient>
<linearGradient id="paint20_linear" x1="482.025" y1="270.398" x2="482.025" y2="298.905" gradientUnits="userSpaceOnUse">
<stop stop-color="#FBC2EB"/>
<stop offset="1" stop-color="#A6C1EE"/>
</linearGradient>
<linearGradient id="paint21_linear" x1="482.025" y1="329.486" x2="482.025" y2="357.993" gradientUnits="userSpaceOnUse">
<stop stop-color="#FBC2EB"/>
<stop offset="1" stop-color="#A6C1EE"/>
</linearGradient>
<linearGradient id="paint22_linear" x1="482.351" y1="388.574" x2="482.351" y2="417.081" gradientUnits="userSpaceOnUse">
<stop stop-color="#FBC2EB"/>
<stop offset="1" stop-color="#A6C1EE"/>
</linearGradient>
<linearGradient id="paint23_linear" x1="482.025" y1="447.656" x2="482.025" y2="469.67" gradientUnits="userSpaceOnUse">
<stop stop-color="#FBC2EB"/>
<stop offset="1" stop-color="#A6C1EE"/>
</linearGradient>
<linearGradient id="paint24_linear" x1="336.348" y1="308.829" x2="336.348" y2="310.923" gradientUnits="userSpaceOnUse">
<stop stop-color="#FBC2EB"/>
<stop offset="1" stop-color="#A6C1EE"/>
</linearGradient>
<linearGradient id="paint25_linear" x1="336.348" y1="313.709" x2="336.348" y2="321.735" gradientUnits="userSpaceOnUse">
<stop stop-color="#FBC2EB"/>
<stop offset="1" stop-color="#A6C1EE"/>
</linearGradient>
<linearGradient id="paint26_linear" x1="336.348" y1="348.043" x2="336.348" y2="360.948" gradientUnits="userSpaceOnUse">
<stop stop-color="#FBC2EB"/>
<stop offset="1" stop-color="#A6C1EE"/>
</linearGradient>
<linearGradient id="paint27_linear" x1="338.632" y1="387.256" x2="338.632" y2="400.162" gradientUnits="userSpaceOnUse">
<stop stop-color="#FBC2EB"/>
<stop offset="1" stop-color="#A6C1EE"/>
</linearGradient>
<linearGradient id="paint28_linear" x1="366.727" y1="426.463" x2="366.727" y2="439.402" gradientUnits="userSpaceOnUse">
<stop stop-color="#FBC2EB"/>
<stop offset="1" stop-color="#A6C1EE"/>
</linearGradient>
<linearGradient id="paint29_linear" x1="556.433" y1="229.41" x2="556.433" y2="247.966" gradientUnits="userSpaceOnUse">
<stop stop-color="#FBC2EB"/>
<stop offset="1" stop-color="#A6C1EE"/>
</linearGradient>
<linearGradient id="paint30_linear" x1="154.565" y1="142.95" x2="154.565" y2="161.507" gradientUnits="userSpaceOnUse">
<stop stop-color="#FBC2EB"/>
<stop offset="1" stop-color="#A6C1EE"/>
</linearGradient>
<linearGradient id="paint31_linear" x1="154.565" y1="186.053" x2="154.565" y2="204.609" gradientUnits="userSpaceOnUse">
<stop stop-color="#FBC2EB"/>
<stop offset="1" stop-color="#A6C1EE"/>
</linearGradient>
<linearGradient id="paint32_linear" x1="154.565" y1="229.155" x2="154.565" y2="247.712" gradientUnits="userSpaceOnUse">
<stop stop-color="#FBC2EB"/>
<stop offset="1" stop-color="#A6C1EE"/>
</linearGradient>
<linearGradient id="paint33_linear" x1="154.565" y1="272.251" x2="154.565" y2="290.808" gradientUnits="userSpaceOnUse">
<stop stop-color="#FBC2EB"/>
<stop offset="1" stop-color="#A6C1EE"/>
</linearGradient>
<linearGradient id="paint34_linear" x1="154.565" y1="315.354" x2="154.565" y2="333.91" gradientUnits="userSpaceOnUse">
<stop stop-color="#FBC2EB"/>
<stop offset="1" stop-color="#A6C1EE"/>
</linearGradient>
<linearGradient id="paint35_linear" x1="154.565" y1="358.456" x2="154.565" y2="377.012" gradientUnits="userSpaceOnUse">
<stop stop-color="#FBC2EB"/>
<stop offset="1" stop-color="#A6C1EE"/>
</linearGradient>
<linearGradient id="paint36_linear" x1="627.287" y1="229.41" x2="627.287" y2="247.966" gradientUnits="userSpaceOnUse">
<stop stop-color="#FBC2EB"/>
<stop offset="1" stop-color="#A6C1EE"/>
</linearGradient>
<linearGradient id="paint37_linear" x1="556.433" y1="275.181" x2="556.433" y2="293.737" gradientUnits="userSpaceOnUse">
<stop stop-color="#FBC2EB"/>
<stop offset="1" stop-color="#A6C1EE"/>
</linearGradient>
<linearGradient id="paint38_linear" x1="627.287" y1="275.181" x2="627.287" y2="293.737" gradientUnits="userSpaceOnUse">
<stop stop-color="#FBC2EB"/>
<stop offset="1" stop-color="#A6C1EE"/>
</linearGradient>
<linearGradient id="paint39_linear" x1="556.433" y1="320.945" x2="556.433" y2="339.502" gradientUnits="userSpaceOnUse">
<stop stop-color="#FBC2EB"/>
<stop offset="1" stop-color="#A6C1EE"/>
</linearGradient>
<linearGradient id="paint40_linear" x1="627.287" y1="320.945" x2="627.287" y2="339.502" gradientUnits="userSpaceOnUse">
<stop stop-color="#FBC2EB"/>
<stop offset="1" stop-color="#A6C1EE"/>
</linearGradient>
<linearGradient id="paint41_linear" x1="556.433" y1="366.716" x2="556.433" y2="385.273" gradientUnits="userSpaceOnUse">
<stop stop-color="#FBC2EB"/>
<stop offset="1" stop-color="#A6C1EE"/>
</linearGradient>
<linearGradient id="paint42_linear" x1="627.287" y1="366.716" x2="627.287" y2="385.273" gradientUnits="userSpaceOnUse">
<stop stop-color="#FBC2EB"/>
<stop offset="1" stop-color="#A6C1EE"/>
</linearGradient>
<linearGradient id="paint43_linear" x1="556.433" y1="412.487" x2="556.433" y2="431.044" gradientUnits="userSpaceOnUse">
<stop stop-color="#FBC2EB"/>
<stop offset="1" stop-color="#A6C1EE"/>
</linearGradient>
<linearGradient id="paint44_linear" x1="627.287" y1="412.487" x2="627.287" y2="431.044" gradientUnits="userSpaceOnUse">
<stop stop-color="#FBC2EB"/>
<stop offset="1" stop-color="#A6C1EE"/>
</linearGradient>
<linearGradient id="paint45_linear" x1="556.429" y1="458.252" x2="556.429" y2="470.218" gradientUnits="userSpaceOnUse">
<stop stop-color="#FBC2EB"/>
<stop offset="1" stop-color="#A6C1EE"/>
</linearGradient>
<linearGradient id="paint46_linear" x1="84.344" y1="194.666" x2="84.344" y2="205.281" gradientUnits="userSpaceOnUse">
<stop stop-color="#FBC2EB"/>
<stop offset="1" stop-color="#A6C1EE"/>
</linearGradient>
<linearGradient id="paint47_linear" x1="84.344" y1="225.567" x2="84.344" y2="236.182" gradientUnits="userSpaceOnUse">
<stop stop-color="#FBC2EB"/>
<stop offset="1" stop-color="#A6C1EE"/>
</linearGradient>
<linearGradient id="paint48_linear" x1="84.344" y1="256.474" x2="84.344" y2="267.084" gradientUnits="userSpaceOnUse">
<stop stop-color="#FBC2EB"/>
<stop offset="1" stop-color="#A6C1EE"/>
</linearGradient>
<linearGradient id="paint49_linear" x1="84.344" y1="287.376" x2="84.344" y2="297.985" gradientUnits="userSpaceOnUse">
<stop stop-color="#FBC2EB"/>
<stop offset="1" stop-color="#A6C1EE"/>
</linearGradient>
<linearGradient id="paint50_linear" x1="84.5104" y1="318.264" x2="84.5104" y2="328.86" gradientUnits="userSpaceOnUse">
<stop stop-color="#FBC2EB"/>
<stop offset="1" stop-color="#A6C1EE"/>
</linearGradient>
<linearGradient id="paint51_linear" x1="91.8458" y1="349.165" x2="91.8458" y2="359.8" gradientUnits="userSpaceOnUse">
<stop stop-color="#FBC2EB"/>
<stop offset="1" stop-color="#A6C1EE"/>
</linearGradient>
<linearGradient id="paint52_linear" x1="109.284" y1="380.066" x2="109.284" y2="386.486" gradientUnits="userSpaceOnUse">
<stop stop-color="#FBC2EB"/>
<stop offset="1" stop-color="#A6C1EE"/>
</linearGradient>
<linearGradient id="paint53_linear" x1="316.358" y1="120.16" x2="316.358" y2="410.452" gradientUnits="userSpaceOnUse">
<stop stop-color="#FBC2EB"/>
<stop offset="1" stop-color="#A6C1EE"/>
</linearGradient>
<linearGradient id="paint54_linear" x1="573.929" y1="542.578" x2="573.929" y2="563" gradientUnits="userSpaceOnUse">
<stop stop-color="#FBC2EB"/>
<stop offset="1" stop-color="#A6C1EE"/>
</linearGradient>
<linearGradient id="paint55_linear" x1="287.131" y1="532.366" x2="287.131" y2="552.789" gradientUnits="userSpaceOnUse">
<stop stop-color="#FBC2EB"/>
<stop offset="1" stop-color="#A6C1EE"/>
</linearGradient>
<linearGradient id="paint56_linear" x1="303.812" y1="545.181" x2="303.812" y2="168.279" gradientUnits="userSpaceOnUse">
<stop stop-color="#808080" stop-opacity="0.25"/>
<stop offset="0.54" stop-color="#808080" stop-opacity="0.12"/>
<stop offset="1" stop-color="#808080" stop-opacity="0.1"/>
</linearGradient>
<linearGradient id="paint57_linear" x1="300.346" y1="352.571" x2="300.346" y2="535.698" gradientUnits="userSpaceOnUse">
<stop stop-color="#FBC2EB"/>
<stop offset="1" stop-color="#A6C1EE"/>
</linearGradient>
<linearGradient id="paint58_linear" x1="346.239" y1="271.931" x2="346.239" y2="290.534" gradientUnits="userSpaceOnUse">
<stop stop-color="#FBC2EB"/>
<stop offset="1" stop-color="#A6C1EE"/>
</linearGradient>
<linearGradient id="paint59_linear" x1="263.49" y1="280.094" x2="263.49" y2="299.335" gradientUnits="userSpaceOnUse">
<stop stop-color="#FBC2EB"/>
<stop offset="1" stop-color="#A6C1EE"/>
</linearGradient>
<linearGradient id="paint60_linear" x1="302.996" y1="233.038" x2="302.996" y2="364.586" gradientUnits="userSpaceOnUse">
<stop stop-color="#FBC2EB"/>
<stop offset="1" stop-color="#A6C1EE"/>
</linearGradient>
<linearGradient id="paint61_linear" x1="263.461" y1="245.937" x2="263.461" y2="290.52" gradientUnits="userSpaceOnUse">
<stop stop-color="#FBC2EB"/>
<stop offset="1" stop-color="#A6C1EE"/>
</linearGradient>
<linearGradient id="paint62_linear" x1="347.453" y1="254.406" x2="347.453" y2="283.374" gradientUnits="userSpaceOnUse">
<stop stop-color="#FBC2EB"/>
<stop offset="1" stop-color="#A6C1EE"/>
</linearGradient>
<linearGradient id="paint63_linear" x1="124179" y1="353217" x2="124179" y2="106177" gradientUnits="userSpaceOnUse">
<stop stop-color="#808080" stop-opacity="0.25"/>
<stop offset="0.54" stop-color="#808080" stop-opacity="0.12"/>
<stop offset="1" stop-color="#808080" stop-opacity="0.1"/>
</linearGradient>
<linearGradient id="paint64_linear" x1="539.9" y1="444.341" x2="539.9" y2="542.578" gradientUnits="userSpaceOnUse">
<stop stop-color="#FBC2EB"/>
<stop offset="1" stop-color="#A6C1EE"/>
</linearGradient>
<linearGradient id="paint65_linear" x1="589.866" y1="450.755" x2="589.866" y2="536.825" gradientUnits="userSpaceOnUse">
<stop stop-color="#FBC2EB"/>
<stop offset="1" stop-color="#A6C1EE"/>
</linearGradient>
<linearGradient id="paint66_linear" x1="571.776" y1="223.407" x2="571.776" y2="457.234" gradientUnits="userSpaceOnUse">
<stop stop-color="#FBC2EB"/>
<stop offset="1" stop-color="#A6C1EE"/>
</linearGradient>
<linearGradient id="paint67_linear" x1="86.6216" y1="526.925" x2="86.6216" y2="547.347" gradientUnits="userSpaceOnUse">
<stop stop-color="#FBC2EB"/>
<stop offset="1" stop-color="#A6C1EE"/>
</linearGradient>
<linearGradient id="paint68_linear" x1="43.487" y1="357.843" x2="43.487" y2="420.245" gradientUnits="userSpaceOnUse">
<stop stop-color="#FBC2EB"/>
<stop offset="1" stop-color="#A6C1EE"/>
</linearGradient>
<linearGradient id="paint69_linear" x1="63.1373" y1="331.404" x2="63.1373" y2="365.372" gradientUnits="userSpaceOnUse">
<stop stop-color="#FBC2EB"/>
<stop offset="1" stop-color="#A6C1EE"/>
</linearGradient>
<linearGradient id="paint70_linear" x1="114.397" y1="343.097" x2="114.397" y2="402.394" gradientUnits="userSpaceOnUse">
<stop stop-color="#FBC2EB"/>
<stop offset="1" stop-color="#A6C1EE"/>
</linearGradient>
<clipPath id="clip0">
<rect width="762" height="563" fill="white"/>
</clipPath>
</defs>
</svg>
